<?xml version="1.0" encoding="UTF-8" standalone="no"?>
<svg width="303px" height="280px" viewBox="0 0 303 280" version="1.1" xmlns="http://www.w3.org/2000/svg" xmlns:xlink="http://www.w3.org/1999/xlink">
    <!-- Generator: Sketch 39.1 (31720) - http://www.bohemiancoding.com/sketch -->
    <title>Groente Fruit En Tuin Afval_FC</title>
    <desc>Created with Sketch.</desc>
    <defs></defs>
    <g id="Page-1" stroke="none" stroke-width="1" fill="none" fill-rule="evenodd">
        <g id="Groente-Fruit-En-Tuin-Afval_FC">
            <path d="M230.498,39.428 C242.194,77.078 271.437,78.905 298.486,73.787 C278.381,25.537 230.498,39.428 230.498,39.428" id="Fill-4" fill="#FFFFFF"></path>
            <g id="Group-8" transform="translate(2.000000, 5.000000)" fill="#FFFFFF">
                <path d="M198.524,28.945 L214.973,38.083 C218.627,30.772 217.532,2.626 217.532,2.626 C217.532,2.626 196.696,-0.663 197.793,0.433 C198.889,1.53 198.524,28.945 198.524,28.945" id="Fill-5"></path>
                <path d="M191.945,47.952 C148.081,9.205 83.38,41.007 83.38,41.007 C83.38,41.007 124.321,83.044 94.347,129.466 C57.793,179.544 2.232,144.453 2.232,145.55 C2.232,146.647 -12.023,202.939 42.441,248.631 C96.905,294.323 161.971,257.036 161.971,257.036 C150.64,243.511 117.741,204.035 155.025,161.633 C192.309,119.231 238.733,149.571 238.733,149.571 C240.196,123.252 235.808,86.699 191.945,47.952" id="Fill-7"></path>
            </g>
            <path d="M243.64,39.793 C260.856,39.793 283.301,45.6 295.533,72.274 C290.866,73.357 286.182,73.904 281.537,73.904 C258.446,73.904 239.06,60.462 232.542,40.607 C235.402,40.187 239.243,39.793 243.637,39.793 L243.64,39.793 L243.64,39.793 Z M301.809,72.96 C301.686,72.668 301.564,72.381 301.44,72.091 C301.158,71.423 300.871,70.764 300.577,70.12 C300.437,69.814 300.296,69.51 300.155,69.21 C299.84,68.538 299.514,67.88 299.185,67.233 C299.074,67.014 298.966,66.788 298.853,66.571 C298.412,65.723 297.96,64.897 297.501,64.09 C297.403,63.919 297.3,63.755 297.2,63.585 C296.832,62.953 296.457,62.33 296.075,61.724 C295.915,61.469 295.751,61.218 295.588,60.968 C295.249,60.442 294.903,59.927 294.554,59.422 C294.391,59.185 294.231,58.947 294.066,58.716 C293.639,58.116 293.207,57.529 292.768,56.956 C292.689,56.849 292.607,56.738 292.526,56.633 C292.009,55.967 291.485,55.323 290.955,54.695 C290.792,54.503 290.625,54.317 290.461,54.127 C290.081,53.688 289.695,53.255 289.306,52.834 C289.112,52.624 288.917,52.416 288.725,52.21 C288.337,51.802 287.945,51.405 287.55,51.014 C287.375,50.84 287.2,50.661 287.023,50.49 C286.466,49.952 285.906,49.429 285.337,48.925 C285.231,48.83 285.124,48.742 285.016,48.648 C284.543,48.234 284.068,47.831 283.588,47.439 C283.38,47.271 283.172,47.107 282.963,46.941 C282.571,46.631 282.176,46.325 281.781,46.029 C281.562,45.866 281.346,45.704 281.127,45.545 C280.691,45.228 280.25,44.922 279.805,44.619 C279.643,44.508 279.481,44.391 279.315,44.281 C278.727,43.888 278.131,43.511 277.534,43.146 C277.34,43.03 277.151,42.919 276.956,42.804 C276.531,42.553 276.107,42.306 275.681,42.068 C275.443,41.936 275.209,41.807 274.974,41.681 C274.569,41.463 274.165,41.252 273.759,41.046 C273.535,40.932 273.312,40.817 273.089,40.706 C272.558,40.446 272.027,40.196 271.497,39.954 C271.348,39.887 271.198,39.82 271.05,39.755 C270.5,39.51 269.95,39.278 269.397,39.054 C269.17,38.961 268.938,38.871 268.707,38.781 C268.307,38.624 267.902,38.47 267.5,38.322 C267.252,38.232 267.006,38.143 266.76,38.055 C266.345,37.91 265.929,37.77 265.513,37.634 C265.301,37.563 265.086,37.491 264.877,37.424 C264.276,37.235 263.676,37.054 263.077,36.885 C262.885,36.831 262.696,36.783 262.504,36.732 C262.072,36.614 261.641,36.499 261.21,36.391 C260.964,36.33 260.72,36.271 260.474,36.212 C260.088,36.12 259.703,36.033 259.317,35.948 C259.08,35.897 258.84,35.843 258.602,35.795 C258.157,35.702 257.713,35.615 257.272,35.534 C257.108,35.502 256.941,35.468 256.776,35.439 C256.193,35.334 255.614,35.24 255.041,35.152 C254.815,35.118 254.594,35.089 254.372,35.057 C253.995,35.002 253.618,34.95 253.241,34.902 C253.001,34.872 252.762,34.843 252.523,34.815 C252.151,34.772 251.781,34.732 251.41,34.695 C251.196,34.673 250.98,34.65 250.765,34.63 C250.215,34.578 249.665,34.533 249.123,34.495 C248.968,34.484 248.818,34.478 248.667,34.467 C248.257,34.441 247.848,34.417 247.446,34.397 C247.216,34.386 246.993,34.378 246.768,34.369 C246.434,34.356 246.102,34.345 245.775,34.335 C245.552,34.329 245.33,34.324 245.109,34.32 C244.761,34.313 244.417,34.311 244.075,34.308 C243.931,34.308 243.783,34.303 243.64,34.303 L243.637,34.303 C243.599,34.303 243.564,34.304 243.529,34.304 C242.98,34.305 242.443,34.313 241.914,34.324 C241.732,34.328 241.551,34.333 241.372,34.338 C240.978,34.35 240.59,34.363 240.206,34.38 C240.039,34.386 239.87,34.392 239.705,34.401 C239.208,34.425 238.719,34.452 238.244,34.484 C238.083,34.494 237.93,34.506 237.773,34.518 C237.419,34.543 237.073,34.57 236.731,34.598 C236.565,34.613 236.398,34.627 236.235,34.641 C235.792,34.681 235.359,34.723 234.94,34.768 C234.815,34.781 234.698,34.795 234.576,34.809 C234.248,34.845 233.928,34.883 233.616,34.922 C233.467,34.94 233.321,34.957 233.176,34.976 C232.836,35.021 232.504,35.065 232.185,35.111 C232.081,35.126 231.975,35.14 231.875,35.155 C231.551,35.202 231.238,35.25 230.939,35.297 C230.815,35.316 230.694,35.337 230.577,35.356 C230.319,35.398 230.071,35.44 229.833,35.482 C229.754,35.495 229.671,35.51 229.595,35.522 C229.3,35.576 229.024,35.627 228.758,35.677 C228.664,35.695 228.574,35.713 228.482,35.732 C228.293,35.768 228.112,35.804 227.943,35.839 C227.872,35.853 227.796,35.868 227.73,35.883 C227.51,35.928 227.308,35.972 227.123,36.012 C227.069,36.026 227.019,36.037 226.966,36.048 C226.831,36.078 226.708,36.107 226.597,36.133 C226.545,36.144 226.497,36.156 226.452,36.166 C226.317,36.198 226.192,36.228 226.098,36.253 C226.092,36.255 226.087,36.255 226.079,36.257 C225.987,36.28 225.916,36.299 225.862,36.312 C225.843,36.317 225.822,36.322 225.808,36.325 C225.786,36.333 225.752,36.34 225.752,36.34 C225.938,37.248 226.148,38.142 226.375,39.029 C226.445,39.302 226.525,39.571 226.597,39.842 C226.768,40.463 226.946,41.08 227.139,41.691 C227.234,41.987 227.328,42.281 227.426,42.576 C227.631,43.186 227.848,43.79 228.075,44.389 C228.167,44.641 228.259,44.896 228.357,45.146 C229.02,46.821 229.764,48.451 230.592,50.032 C230.714,50.267 230.844,50.496 230.971,50.729 C231.273,51.288 231.585,51.843 231.909,52.388 C232.059,52.645 232.212,52.9 232.367,53.153 C232.701,53.695 233.048,54.232 233.402,54.76 C233.543,54.975 233.682,55.193 233.83,55.406 C234.837,56.867 235.917,58.274 237.065,59.624 C237.238,59.824 237.414,60.02 237.586,60.219 C238.004,60.694 238.426,61.16 238.859,61.621 C239.065,61.838 239.27,62.053 239.478,62.266 C239.921,62.722 240.375,63.168 240.835,63.608 C241.022,63.786 241.207,63.968 241.397,64.145 C242.049,64.751 242.714,65.346 243.399,65.921 L243.402,65.922 C244.081,66.493 244.779,67.044 245.488,67.583 C245.703,67.744 245.92,67.9 246.135,68.059 C246.646,68.437 247.166,68.807 247.692,69.169 C247.94,69.339 248.188,69.507 248.441,69.673 C248.979,70.029 249.523,70.373 250.074,70.711 C250.298,70.85 250.519,70.99 250.749,71.125 C251.526,71.588 252.313,72.037 253.119,72.465 C253.125,72.468 253.133,72.473 253.143,72.476 C253.933,72.895 254.739,73.294 255.554,73.677 C255.801,73.795 256.053,73.904 256.302,74.018 C256.893,74.286 257.491,74.547 258.094,74.798 C258.377,74.915 258.664,75.031 258.95,75.144 C259.566,75.388 260.189,75.622 260.819,75.846 C261.068,75.935 261.316,76.029 261.569,76.115 C262.449,76.416 263.337,76.702 264.242,76.965 C264.252,76.968 264.262,76.971 264.276,76.973 C265.159,77.23 266.053,77.461 266.953,77.678 C267.225,77.742 267.5,77.802 267.773,77.863 C268.433,78.01 269.094,78.152 269.761,78.278 C270.071,78.338 270.379,78.395 270.691,78.449 C271.374,78.568 272.059,78.674 272.75,78.77 C273.019,78.809 273.284,78.852 273.553,78.885 C274.513,79.008 275.482,79.112 276.458,79.19 C276.479,79.193 276.503,79.194 276.527,79.195 C277.468,79.27 278.42,79.318 279.374,79.349 C279.668,79.36 279.964,79.362 280.26,79.368 C280.686,79.377 281.108,79.394 281.537,79.394 C281.812,79.394 282.093,79.381 282.37,79.377 C282.706,79.372 283.04,79.364 283.374,79.356 C284.089,79.336 284.809,79.302 285.529,79.257 C285.824,79.239 286.121,79.225 286.417,79.204 C287.424,79.128 288.437,79.035 289.457,78.912 C289.498,78.907 289.539,78.899 289.579,78.895 C290.549,78.775 291.523,78.629 292.502,78.465 C292.832,78.41 293.164,78.345 293.497,78.285 C294.196,78.158 294.901,78.021 295.606,77.868 C295.976,77.789 296.347,77.706 296.72,77.62 C297.426,77.456 298.133,77.28 298.842,77.093 C299.178,77.003 299.512,76.92 299.848,76.826 C300.883,76.536 301.917,76.23 302.953,75.89 C302.584,74.888 302.201,73.917 301.809,72.96 L301.809,72.96 Z" id="Fill-9" fill="#1A1918"></path>
            <path d="M238.042,149.352 C232.106,146.197 225.781,143.955 219.142,142.665 C214.743,141.811 210.315,141.38 205.992,141.38 C168.156,141.38 137.377,172.158 137.377,209.994 C137.377,224.842 142.108,239.02 151.063,250.999 C153.771,254.622 156.802,257.95 160.116,260.944 C151.819,265.461 142.982,268.796 133.834,270.907 C117.76,265.943 106.084,250.983 106.084,233.281 C106.084,232.858 106.136,232.444 106.15,232.03 C101.739,233.731 96.965,234.702 91.954,234.702 C70.198,234.702 52.566,217.07 52.566,195.313 C52.566,195.105 52.592,194.905 52.592,194.699 C48.321,196.286 43.718,197.194 38.892,197.194 C25.242,197.194 13.512,190.241 6.614,179.693 C6.273,176.268 6.093,172.796 6.093,169.283 C6.093,164.161 6.478,159.014 7.247,153.893 C12.476,157.054 18.1,159.491 24.054,161.166 C30.227,162.909 36.495,163.793 42.687,163.793 C80.522,163.793 111.304,133.012 111.304,95.179 C111.304,81.763 107.399,68.739 100.015,57.515 C97.144,53.158 93.785,49.15 89.979,45.54 C96.294,42.584 102.901,40.307 109.669,38.67 C125.378,43.847 136.718,58.627 136.718,76.07 C136.718,76.49 136.668,76.901 136.655,77.32 C141.064,75.615 145.839,74.643 150.85,74.643 C172.605,74.643 190.239,92.279 190.239,114.037 C190.239,114.244 190.21,114.443 190.21,114.65 C194.483,113.061 199.086,112.152 203.911,112.152 C218.598,112.152 231.377,120.2 238.139,132.116 C238.336,134.724 238.469,137.351 238.469,140.007 C238.469,143.095 238.326,146.22 238.042,149.352 L238.042,149.352 Z M109.852,273.027 C60.085,273.027 18.4,237.72 8.347,190.763 C8.306,190.566 8.256,190.369 8.215,190.171 C16.235,197.976 27.096,202.683 38.892,202.683 C41.794,202.683 44.687,202.392 47.547,201.824 C50.708,223.496 69.419,240.192 91.954,240.192 C94.996,240.192 98.015,239.882 100.998,239.258 C102.884,253.318 111.338,265.366 123.159,272.18 C118.764,272.746 114.323,273.027 109.852,273.027 L109.852,273.027 Z M132.952,36.319 C183.122,36.319 225.134,71.934 235.038,119.207 C226.918,111.384 215.901,106.664 203.911,106.664 C201.007,106.664 198.116,106.952 195.256,107.525 C192.093,85.85 173.384,69.154 150.85,69.154 C147.81,69.154 144.79,69.468 141.808,70.087 C139.917,56.028 131.461,43.985 119.639,37.166 C124.035,36.602 128.48,36.319 132.952,36.319 L132.952,36.319 Z M134.175,30.222 C114.526,30.222 96.1,35.405 80.139,44.446 C86.13,48.877 91.326,54.302 95.429,60.534 C101.974,70.484 105.813,82.377 105.813,95.179 C105.813,130.039 77.552,158.304 42.687,158.304 C36.733,158.304 31.001,157.425 25.549,155.884 C17.379,153.584 9.895,149.706 3.433,144.561 C1.927,151.108 0.992,157.878 0.707,164.816 C0.705,164.798 0.7,164.783 0.697,164.767 C0.647,166.084 0.54,167.538 0.54,168.867 C0.54,176.514 1.318,183.974 2.792,191.177 C12.939,241.318 57.248,279.067 110.387,279.067 C132.258,279.067 152.622,272.642 169.735,261.62 C164.264,257.768 159.462,253.064 155.457,247.711 C147.583,237.174 142.866,224.155 142.866,209.994 C142.866,175.129 171.125,146.868 205.992,146.868 C210.137,146.868 214.174,147.293 218.098,148.054 C227.013,149.789 235.231,153.408 242.379,158.47 C243.399,152.461 243.959,146.3 243.959,140.007 C243.959,79.371 194.804,30.222 134.175,30.222 L134.175,30.222 Z" id="Fill-10" fill="#1A1918"></path>
            <path d="M217.38,10.903 C217.167,21.607 216.208,31.952 214.955,38.026 C210.711,35.258 206.235,32.941 203.185,31.469 C203.968,23.483 204.217,14.919 202.973,8.109 C208.421,9.11 213.785,10.173 217.38,10.903 L217.38,10.903 Z M197.3,34.797 C197.3,34.797 210.107,40.285 217.426,46.691 C222.917,40.285 222.917,6.436 222.917,6.436 C222.917,6.436 205.533,2.777 193.641,0.946 C200.959,4.607 197.3,34.797 197.3,34.797 L197.3,34.797 Z" id="Fill-11" fill="#1A1918"></path>
        </g>
    </g>
</svg>