<?xml version="1.0" encoding="UTF-8" standalone="no"?>
<svg width="209px" height="304px" viewBox="0 0 209 304" version="1.1" xmlns="http://www.w3.org/2000/svg" xmlns:xlink="http://www.w3.org/1999/xlink" preserveAspectRatio="xMinYMin meet">
    <!-- Generator: Sketch 39.1 (31720) - http://www.bohemiancoding.com/sketch -->
    <title>Rest Afval_FC</title>
    <desc>Created with Sketch.</desc>
    <defs></defs>
    <g id="Page-1" stroke="none" stroke-width="1" fill="none" fill-rule="evenodd">
        <g id="Rest-Afval_FC">
            <path d="M202.228,251.517 C201.363,242.866 194.445,132.168 178.876,109.682 C163.31,87.196 108.825,75.737 108.825,75.737 L88.382,80.243 C88.249,80.147 88.115,80.05 87.98,79.953 C91.522,74.747 99.541,60.386 99.541,60.386 L122.663,23.198 L102.216,17.708 C102.298,12.325 102.207,8.01 101.905,5.901 C94.122,9.36 49.15,24.927 49.15,24.927 C49.15,24.927 52.191,28.925 56.341,34.764 C53.042,36.57 36.39,45.712 23.205,53.467 C41.65,54.697 63.148,64.232 79.013,73.992 C79.271,75.044 79.42,75.999 79.42,76.818 L78.206,82.486 L68.609,84.602 C68.609,84.602 28.394,106.223 18.016,121.79 C7.638,137.357 -0.538,235.631 7.009,255.686 C1.584,265.353 0.854,302.225 0.854,302.225 C0.854,302.225 59.528,299.947 65.583,296.489 C71.636,293.028 135.635,306.001 172.824,284.381 C194.445,280.921 205.688,278.326 207.417,275.731 C209.147,273.137 203.093,260.164 202.228,251.517" id="Fill-4" fill="#FFFFFF"></path>
            <path d="M181.227,278.531 C184.356,276.405 187.036,274.02 188.949,271.343 L184.693,268.305 C174.575,282.472 137.144,288.099 136.764,288.154 L137.197,291.112 C128.907,292.25 119.675,292.814 109.442,292.814 C99.773,292.814 90.755,292.321 83.512,291.925 C80.187,291.742 77.174,291.578 74.572,291.488 C77.859,289.836 80.879,287.932 83.49,285.714 L80.105,281.729 C62.205,296.929 22.385,296.679 9.258,296.607 C9.106,296.603 8.958,296.603 8.81,296.603 C9.898,265.464 12.586,258.401 13.186,257.192 L25.615,233.758 L20.985,231.327 L10.626,251.042 C5.373,226.52 12.955,137.824 22.09,124.123 C29.676,112.743 57.332,95.986 69.449,89.302 L77.185,87.249 L77.561,87.149 L79.061,86.819 C78.316,87.758 77.501,88.795 76.614,89.924 C67.141,101.967 50.432,123.619 48.41,129.02 C45.708,136.226 45.627,213.53 45.627,222.322 L50.856,222.322 C50.856,218.463 50.864,214.309 50.885,209.984 C51.027,177.495 51.729,135.052 53.304,130.852 C54.557,127.513 64.156,114.523 74.097,101.654 C78.531,95.915 83.032,90.2 86.89,85.378 C86.929,85.331 87.021,85.214 87.162,85.034 L88.122,84.822 L87.875,84.414 L90.199,83.797 C90.387,83.943 90.583,84.093 90.767,84.239 C91.776,85.044 92.719,85.827 93.584,86.583 C102.698,94.557 108.391,112.5 111.036,122.785 C112.19,127.275 112.764,130.313 112.785,130.411 L117.923,129.464 C117.669,128.081 111.542,95.592 97.214,82.818 L99.832,82.241 C105.954,90.749 116.862,100.194 127.54,109.431 C136.227,116.947 146.076,125.47 146.79,128.749 C149.014,138.98 152.904,159.403 153.73,165.169 L158.904,164.432 C157.989,158.001 154.008,137.337 151.898,127.639 C150.865,122.888 143.641,116.447 130.958,105.477 C122.4,98.07 111.761,88.863 105.473,80.998 L109.266,80.161 C124.797,83.58 163.934,95.216 175.549,111.996 C181.53,120.635 190.175,150.614 197.503,244.11 C195.5,237.336 191.569,230.051 184.145,223.808 L180.783,227.811 C198.445,242.664 193.64,264.386 193.425,265.307 L198.515,266.503 C198.597,266.161 199.248,263.254 199.375,258.918 C200.03,261.555 200.835,264.22 201.59,266.705 C202.265,268.922 203.123,271.747 203.5,273.54 C200.971,274.581 194.862,276.174 181.227,278.531 L181.227,278.531 Z M74.164,67.018 C61.188,59.758 45.68,53.225 31.022,50.71 C40.781,45.097 50.95,39.475 55.604,36.917 C62.836,47.195 70.243,58.719 74.164,67.018 L74.164,67.018 Z M103.641,45.859 C104.392,37.585 104.929,27.949 105.14,19.852 L118.686,23.386 C115.253,27.885 108.916,36.561 103.641,45.859 L103.641,45.859 Z M99.932,8.209 C100,10.186 100.012,12.734 99.975,15.623 C99.877,23.235 99.427,33.328 98.685,42.46 C98.461,45.203 98.212,47.862 97.938,50.332 C97.299,56.087 94.872,62.163 92.144,67.446 L81.094,70.319 C76.577,56.876 59.72,33.47 53.354,24.899 C62.821,21.609 89.218,12.389 99.932,8.209 L99.932,8.209 Z M203.381,251.956 C202.509,243.239 195.538,131.68 179.849,109.019 C166.706,90.034 126.035,78.85 113.188,75.721 L112.027,62.273 L100.8,65.193 C104.823,48.914 125.004,23.783 125.228,23.503 L127.776,20.353 L105.232,14.472 C105.268,9.809 105.156,6.074 104.868,4.059 L104.381,0.634 L101.217,2.039 C93.563,5.442 48.712,20.979 48.259,21.131 L44.847,22.313 L47.034,25.186 C48.771,27.471 50.634,29.984 52.546,32.629 C46.47,35.973 32.766,43.567 21.641,50.112 L14.332,54.409 L22.794,54.976 C39.142,56.064 58.007,63.869 73.006,72.425 L63.995,74.768 L65.821,85.348 C56.37,90.651 26.501,108.074 17.736,121.221 C7.277,136.91 -0.962,235.949 6.646,256.152 C1.177,265.901 0.442,303.052 0.442,303.052 C0.442,303.052 59.572,300.766 65.672,297.278 C65.771,297.222 65.886,297.169 66.013,297.123 C66.059,297.105 66.117,297.09 66.167,297.074 C66.256,297.047 66.344,297.016 66.443,296.991 C66.51,296.976 66.584,296.961 66.655,296.945 C66.755,296.925 66.852,296.902 66.962,296.882 C67.038,296.869 67.125,296.857 67.208,296.846 C67.324,296.829 67.441,296.81 67.569,296.797 C67.655,296.786 67.748,296.778 67.836,296.769 C67.974,296.755 68.114,296.743 68.26,296.731 C68.355,296.724 68.452,296.717 68.548,296.71 C68.706,296.702 68.866,296.692 69.035,296.686 C69.134,296.68 69.237,296.675 69.341,296.673 C69.521,296.667 69.704,296.66 69.896,296.657 C69.998,296.654 70.103,296.653 70.209,296.651 C70.413,296.649 70.618,296.646 70.83,296.646 L71.104,296.646 C71.99,296.647 72.965,296.667 74.024,296.702 C74.109,296.704 74.194,296.708 74.279,296.709 C75.366,296.747 76.539,296.798 77.789,296.859 C77.856,296.862 77.921,296.864 77.988,296.869 C78.654,296.902 79.349,296.939 80.057,296.977 C81.613,297.057 83.26,297.149 85.001,297.242 C85.444,297.267 85.896,297.292 86.353,297.316 C86.62,297.33 86.889,297.345 87.161,297.359 C87.844,297.395 88.537,297.432 89.245,297.468 C89.423,297.476 89.607,297.485 89.787,297.493 C90.386,297.523 90.992,297.552 91.605,297.581 C91.834,297.592 92.063,297.604 92.292,297.613 C93.057,297.647 93.827,297.682 94.61,297.714 C94.764,297.721 94.92,297.727 95.076,297.733 C95.761,297.762 96.455,297.786 97.154,297.812 C97.362,297.82 97.568,297.826 97.775,297.832 C98.604,297.862 99.44,297.888 100.286,297.911 C100.434,297.915 100.583,297.918 100.734,297.922 C101.479,297.942 102.231,297.96 102.987,297.976 C103.181,297.98 103.374,297.985 103.568,297.987 C104.445,298.004 105.329,298.019 106.221,298.027 C106.378,298.028 106.54,298.028 106.698,298.03 C107.486,298.038 108.28,298.041 109.076,298.042 C109.2,298.042 109.32,298.044 109.442,298.044 C109.492,298.044 109.542,298.042 109.589,298.042 C110.779,298.042 111.98,298.034 113.19,298.019 C113.34,298.017 113.489,298.016 113.637,298.012 C114.839,297.993 116.055,297.967 117.274,297.931 C117.431,297.925 117.591,297.921 117.752,297.916 C118.962,297.878 120.181,297.828 121.404,297.773 C121.577,297.765 121.75,297.754 121.923,297.746 C123.14,297.687 124.361,297.614 125.586,297.532 C125.766,297.521 125.946,297.508 126.126,297.495 C127.345,297.409 128.568,297.314 129.792,297.204 C129.979,297.188 130.168,297.172 130.357,297.153 C131.576,297.041 132.796,296.914 134.018,296.778 C134.207,296.755 134.397,296.733 134.586,296.71 C135.805,296.57 137.025,296.414 138.24,296.242 C138.431,296.216 138.617,296.19 138.807,296.161 C140.025,295.986 141.244,295.797 142.455,295.589 C142.635,295.56 142.816,295.528 142.994,295.497 C144.213,295.283 145.426,295.058 146.634,294.813 C146.805,294.778 146.975,294.742 147.145,294.707 C148.359,294.455 149.57,294.189 150.769,293.9 C150.928,293.861 151.083,293.822 151.239,293.784 C152.447,293.488 153.652,293.176 154.843,292.843 C154.982,292.803 155.119,292.762 155.257,292.723 C156.46,292.378 157.658,292.017 158.839,291.63 C158.958,291.593 159.073,291.553 159.188,291.514 C160.387,291.118 161.575,290.7 162.745,290.258 C162.835,290.223 162.927,290.187 163.019,290.153 C164.209,289.696 165.386,289.22 166.544,288.714 C166.605,288.686 166.666,288.656 166.728,288.63 C167.909,288.111 169.072,287.565 170.212,286.989 C170.247,286.973 170.28,286.954 170.314,286.939 C171.48,286.347 172.626,285.729 173.749,285.076 C195.538,281.588 206.867,278.977 208.609,276.361 C210.354,273.745 204.252,260.672 203.381,251.956 L203.381,251.956 Z" id="Fill-5" fill="#1A1918"></path>
            <path d="M141.786,268.196 L146.442,270.578 C148.522,266.508 166.777,230.46 166.777,218.837 L161.544,218.837 C161.544,227.615 147.28,257.443 141.786,268.196" id="Fill-6" fill="#1A1918"></path>
        </g>
    </g>
</svg>