<?xml version="1.0" encoding="UTF-8" standalone="no"?>
<svg width="251px" height="267px" viewBox="0 0 251 267" version="1.1" xmlns="http://www.w3.org/2000/svg" xmlns:xlink="http://www.w3.org/1999/xlink">
    <!-- Generator: Sketch 39.1 (31720) - http://www.bohemiancoding.com/sketch -->
    <title>Verpakkingen_FC</title>
    <desc>Created with Sketch.</desc>
    <defs></defs>
    <g id="Page-1" stroke="none" stroke-width="1" fill="none" fill-rule="evenodd">
        <g id="Verpakkingen_FC">
            <polyline id="Fill-4" fill="#FFFFFF" points="157.811 11.811 105.952 0.544 105.952 16.165 58.185 48.691 58.185 223.865 112.735 250.497 186.75 221.819 186.75 52.018 157.811 29.738 157.811 11.811"></polyline>
            <path d="M110.108,244.471 L62.383,221.254 L62.421,52.685 L110.272,67.465 L110.108,244.471 L110.108,244.471 Z M115.739,62.706 L150.259,31.802 L178.619,53.122 L115.739,62.706 L115.739,62.706 Z M108.206,19.284 L147.164,29.281 L109.983,61.865 L65.568,48.231 L108.206,19.284 L108.206,19.284 Z M109.455,4.586 L153.343,14.695 L153.343,26.679 L134.909,22.039 L109.57,15.338 L109.455,4.586 L109.455,4.586 Z M182.088,58.024 L181.922,219.07 L115.27,245.245 L115.445,67.596 L182.088,58.024 L182.088,58.024 Z M157.811,11.81 L105.95,0.543 L105.95,16.165 L58.184,48.691 L58.184,223.865 L112.734,250.497 L186.75,221.819 L186.75,52.019 L157.811,29.737 L157.811,11.81 L157.811,11.81 Z" id="Fill-5" fill="#1A1918"></path>
            <path d="M157.377,173.017 C157.559,173.2 157.739,173.364 157.922,173.523 C157.973,173.566 158.026,173.606 158.079,173.649 C158.211,173.756 158.345,173.861 158.479,173.959 C158.54,173.999 158.599,174.042 158.66,174.085 C158.787,174.172 158.917,174.255 159.048,174.333 C159.108,174.366 159.167,174.403 159.224,174.436 C159.364,174.512 159.504,174.582 159.646,174.649 C159.695,174.671 159.743,174.696 159.791,174.718 C160.169,174.882 160.552,175.005 160.94,175.09 C160.992,175.099 161.042,175.108 161.096,175.116 C161.235,175.144 161.374,175.166 161.516,175.182 C161.584,175.191 161.65,175.196 161.716,175.199 C161.847,175.211 161.973,175.218 162.101,175.22 C162.144,175.22 162.179,175.224 162.221,175.224 C162.246,175.224 162.274,175.22 162.298,175.22 C162.511,175.218 162.728,175.211 162.94,175.186 C162.946,175.184 162.951,175.184 162.959,175.184 C163.178,175.159 163.402,175.121 163.623,175.076 C163.683,175.063 163.746,175.047 163.807,175.034 C163.986,174.993 164.16,174.947 164.336,174.893 C164.39,174.879 164.443,174.866 164.493,174.848 C164.713,174.779 164.936,174.7 165.159,174.611 C165.208,174.591 165.257,174.571 165.308,174.55 C165.489,174.477 165.669,174.394 165.851,174.309 C165.915,174.28 165.977,174.248 166.042,174.219 C166.264,174.112 166.486,173.995 166.708,173.87 C166.712,173.867 166.717,173.865 166.721,173.864 C166.951,173.736 167.181,173.599 167.413,173.453 C167.471,173.417 167.531,173.377 167.591,173.342 C167.782,173.221 167.972,173.095 168.161,172.968 C168.205,172.934 168.25,172.906 168.296,172.873 C168.528,172.71 168.762,172.542 168.995,172.367 C169.035,172.336 169.077,172.31 169.113,172.281 C169.315,172.128 169.516,171.972 169.718,171.808 C169.771,171.768 169.822,171.728 169.873,171.688 C170.35,171.302 170.828,170.895 171.305,170.472 C171.351,170.429 171.397,170.389 171.443,170.349 C171.66,170.158 171.873,169.966 172.085,169.769 C172.116,169.741 172.142,169.715 172.172,169.688 C172.417,169.462 172.663,169.232 172.908,168.996 C172.936,168.97 172.96,168.945 172.992,168.918 C173.204,168.712 173.419,168.504 173.635,168.293 C173.686,168.246 173.734,168.199 173.782,168.151 C174.021,167.915 174.259,167.68 174.497,167.443 C180.47,161.468 190.824,115.679 190.824,115.679 C178.478,116.875 160.962,123.643 158.572,126.031 C156.183,128.421 155.385,138.773 153.395,151.513 C151.408,164.26 152.202,167.841 157.377,173.017 L157.377,173.017 Z M233.828,260.219 C233.828,260.219 257.32,226.371 249.354,184.564 C241.391,142.753 230.641,100.947 230.641,100.947 L201.575,100.547 C201.575,100.547 152.399,112.693 150.606,114.486 C148.816,116.277 144.634,122.448 143.841,125.633 C143.042,128.816 136.276,174.21 136.276,174.21 C136.276,174.21 135.875,245.872 155.788,260.206 L233.828,260.219 L233.828,260.219 Z M202.767,94.576 C202.767,94.576 195.998,70.683 216.708,70.683 C237.41,70.683 231.04,94.576 231.04,94.576 L202.767,94.576 L202.767,94.576 Z" id="Fill-6" fill="#FFFFFF"></path>
            <path d="M228.072,90.991 L205.671,90.991 C205.076,87.222 204.878,81.356 207.558,77.821 C209.373,75.43 212.366,74.269 216.708,74.269 C221.079,74.269 224.113,75.452 225.981,77.882 C228.844,81.612 228.553,87.567 228.072,90.991 M231.04,94.576 C231.04,94.576 237.409,70.684 216.708,70.684 C195.998,70.684 202.767,94.576 202.767,94.576 L231.04,94.576" id="Fill-7" fill="#1A1918"></path>
            <path d="M156.995,256.6 C142.732,244.417 139.779,193.613 139.852,174.484 C142.467,156.98 146.77,128.689 147.315,126.503 C147.857,124.344 151.123,119.263 152.839,117.339 C156.647,115.714 180.572,109.432 201.989,104.137 L227.839,104.494 C230.317,114.337 239.119,149.989 245.834,185.233 C252.47,220.071 236.174,249.609 231.882,256.607 L156.995,256.6 L156.995,256.6 Z M233.828,260.219 C233.828,260.219 257.321,226.371 249.354,184.564 C241.39,142.753 230.641,100.947 230.641,100.947 L201.575,100.547 C201.575,100.547 152.399,112.693 150.606,114.486 C148.817,116.277 144.633,122.448 143.839,125.633 C143.042,128.818 136.274,174.21 136.274,174.21 C136.274,174.21 135.875,245.872 155.788,260.206 L233.828,260.219 L233.828,260.219 Z" id="Fill-8" fill="#1A1918"></path>
            <path d="M153.395,151.515 C155.386,138.773 156.183,128.421 158.572,126.031 C160.962,123.643 178.478,116.875 190.824,115.679 C190.824,115.679 180.47,161.468 174.497,167.441 C174.259,167.68 174.021,167.915 173.782,168.151 C173.734,168.199 173.686,168.244 173.635,168.293 C173.42,168.504 173.204,168.712 172.992,168.916 C172.96,168.945 172.936,168.97 172.908,168.996 C172.663,169.232 172.417,169.462 172.172,169.688 C172.143,169.715 172.116,169.741 172.085,169.767 C171.873,169.963 171.66,170.158 171.443,170.346 C171.397,170.389 171.351,170.432 171.306,170.474 C170.828,170.895 170.35,171.302 169.873,171.688 C169.822,171.728 169.771,171.768 169.718,171.811 C169.516,171.972 169.315,172.126 169.113,172.281 C169.077,172.31 169.035,172.339 168.995,172.367 C168.762,172.542 168.528,172.71 168.296,172.873 C168.25,172.906 168.205,172.934 168.163,172.968 C167.972,173.095 167.782,173.221 167.591,173.342 C167.531,173.38 167.471,173.417 167.413,173.453 C167.181,173.599 166.951,173.736 166.721,173.865 C166.717,173.867 166.712,173.87 166.708,173.87 C166.486,173.995 166.264,174.112 166.042,174.219 C165.977,174.248 165.915,174.28 165.851,174.309 C165.669,174.396 165.489,174.477 165.308,174.55 C165.257,174.571 165.208,174.591 165.159,174.611 C164.936,174.7 164.713,174.779 164.493,174.848 C164.443,174.866 164.39,174.877 164.336,174.893 C164.16,174.947 163.986,174.993 163.807,175.034 C163.746,175.05 163.683,175.063 163.623,175.074 C163.402,175.119 163.178,175.159 162.959,175.184 C162.951,175.184 162.946,175.184 162.94,175.186 C162.728,175.208 162.511,175.218 162.298,175.22 C162.274,175.22 162.246,175.224 162.221,175.224 C162.179,175.224 162.144,175.218 162.101,175.218 C161.973,175.218 161.847,175.211 161.716,175.201 C161.65,175.196 161.584,175.191 161.516,175.182 C161.374,175.166 161.235,175.144 161.096,175.116 C161.042,175.108 160.992,175.101 160.942,175.09 C160.552,175.007 160.169,174.882 159.791,174.718 C159.743,174.696 159.695,174.671 159.646,174.649 C159.504,174.582 159.364,174.512 159.224,174.436 C159.167,174.403 159.108,174.366 159.048,174.333 C158.917,174.255 158.787,174.172 158.66,174.082 C158.599,174.042 158.54,174.002 158.479,173.959 C158.345,173.864 158.211,173.756 158.079,173.646 C158.026,173.606 157.973,173.566 157.922,173.523 C157.739,173.364 157.559,173.2 157.377,173.017 C152.202,167.841 151.408,164.26 153.395,151.515 M149.857,150.964 C147.87,163.678 148.312,169.014 154.846,175.551 C157.003,177.711 159.484,178.806 162.221,178.806 C167.738,178.806 172.757,174.25 177.029,169.975 C183.414,163.595 192.554,124.285 194.319,116.471 L195.412,111.636 L190.478,112.113 C178.643,113.259 159.558,119.976 156.039,123.497 C153.488,126.05 152.643,131.41 151.114,142.325 C150.738,145.017 150.332,147.922 149.857,150.964" id="Fill-9" fill="#1A1918"></path>
            <path d="M83.569,241.863 L83.569,164.822 C84.028,164.28 84.279,163.72 84.279,163.147 C84.279,161.641 82.614,160.226 79.68,158.972 C85.868,150.709 82.011,133.147 70.022,117.49 C69.647,117.005 69.27,116.527 68.889,116.054 C68.771,115.908 68.654,115.766 68.539,115.623 C68.264,115.286 67.986,114.951 67.706,114.624 C67.585,114.477 67.459,114.331 67.335,114.187 C67.005,113.803 66.672,113.423 66.34,113.051 C66.278,112.981 66.216,112.911 66.155,112.842 C65.763,112.404 65.364,111.979 64.964,111.558 C64.851,111.439 64.74,111.323 64.626,111.205 C64.328,110.896 64.029,110.59 63.726,110.286 C63.599,110.159 63.471,110.03 63.341,109.903 C63.017,109.581 62.69,109.268 62.364,108.957 C62.277,108.874 62.192,108.791 62.103,108.708 C61.693,108.321 61.277,107.943 60.863,107.571 C60.767,107.486 60.672,107.404 60.577,107.319 C60.251,107.032 59.925,106.751 59.598,106.473 C59.47,106.365 59.339,106.257 59.21,106.147 C58.886,105.88 58.562,105.612 58.234,105.352 C58.136,105.273 58.038,105.194 57.939,105.114 C57.514,104.78 57.088,104.452 56.661,104.133 C56.6,104.088 56.538,104.043 56.477,103.998 C56.111,103.731 55.748,103.467 55.38,103.21 C55.262,103.126 55.141,103.043 55.022,102.961 C54.693,102.735 54.366,102.512 54.037,102.298 C53.932,102.227 53.829,102.158 53.722,102.089 C53.291,101.811 52.861,101.538 52.43,101.278 C52.425,101.276 52.422,101.274 52.418,101.272 C52,101.019 51.582,100.777 51.165,100.542 C51.051,100.479 50.939,100.419 50.827,100.356 C50.503,100.177 50.18,100.005 49.858,99.837 C49.745,99.779 49.634,99.719 49.521,99.662 C49.11,99.454 48.698,99.252 48.289,99.062 C48.284,99.059 48.275,99.055 48.27,99.052 C47.847,98.856 47.427,98.673 47.01,98.497 C46.905,98.453 46.802,98.413 46.697,98.368 C46.381,98.24 46.068,98.116 45.756,98 C45.638,97.955 45.522,97.911 45.404,97.87 C45.058,97.746 44.713,97.626 44.371,97.515 C44.309,97.495 44.249,97.474 44.188,97.455 C43.786,97.327 43.388,97.213 42.992,97.106 C42.894,97.081 42.795,97.056 42.699,97.031 C42.4,96.955 42.103,96.884 41.809,96.82 C41.687,96.794 41.564,96.767 41.443,96.743 C41.147,96.685 40.856,96.631 40.565,96.585 C40.472,96.568 40.375,96.551 40.282,96.537 C39.907,96.48 39.538,96.435 39.17,96.4 C39.084,96.392 38.997,96.388 38.909,96.38 C38.629,96.357 38.351,96.341 38.074,96.33 C37.951,96.325 37.828,96.322 37.707,96.319 C37.606,96.318 37.503,96.311 37.402,96.311 C37.287,96.311 37.176,96.322 37.06,96.323 C36.878,96.327 36.697,96.332 36.517,96.343 C36.32,96.352 36.124,96.368 35.929,96.386 C35.755,96.402 35.582,96.418 35.412,96.441 C35.217,96.464 35.025,96.496 34.835,96.529 C34.669,96.556 34.503,96.583 34.342,96.616 C34.149,96.656 33.961,96.705 33.773,96.752 C33.617,96.792 33.461,96.83 33.309,96.871 C33.115,96.928 32.931,96.993 32.744,97.06 C32.602,97.109 32.457,97.154 32.317,97.208 C32.124,97.284 31.934,97.374 31.745,97.457 C31.62,97.515 31.492,97.564 31.368,97.627 C31.16,97.73 30.96,97.846 30.758,97.963 C30.662,98.019 30.56,98.068 30.462,98.129 C30.169,98.31 29.883,98.505 29.606,98.715 C20.503,105.599 23.841,125.167 37.053,142.42 C37.429,142.91 37.809,143.389 38.191,143.865 C38.302,144.002 38.414,144.139 38.526,144.276 C38.809,144.622 39.096,144.965 39.381,145.303 C39.498,145.442 39.614,145.58 39.73,145.715 C40.075,146.118 40.422,146.517 40.773,146.906 C40.82,146.957 40.866,147.011 40.912,147.061 C41.313,147.504 41.716,147.938 42.119,148.365 C42.149,148.397 42.177,148.428 42.205,148.457 C21.645,148.497 5.027,152.54 5.027,157.529 C5.027,158.081 5.244,158.625 5.639,159.154 C2.961,160.358 1.457,161.714 1.457,163.147 C1.457,163.722 1.709,164.281 2.169,164.826 L2.169,241.138 L2.19,241.821 C1.202,243.45 0.663,245.165 0.663,246.938 C0.663,257.537 19.556,266.136 42.87,266.136 C66.179,266.136 85.072,257.537 85.072,246.938 C85.072,245.178 84.542,243.479 83.569,241.863" id="Fill-10" fill="#FFFFFF"></path>
            <path d="M56.235,150.333 C56.199,150.316 56.164,150.293 56.126,150.273" id="Fill-11" fill="#1A1918"></path>
            <path d="M56.235,150.333 C56.199,150.316 56.164,150.293 56.126,150.273" id="Stroke-12" stroke-linecap="round" stroke-linejoin="round"></path>
            <path d="M42.869,262.95 C19.873,262.95 3.85,254.511 3.85,246.938 C3.85,246.868 3.859,246.804 3.862,246.735 C8.804,254.907 24.349,260.788 42.804,260.788 C56.905,260.788 69.754,257.397 77.172,251.722 L77.396,251.552 C77.583,251.412 77.77,251.274 77.946,251.126 C78.14,250.97 78.316,250.806 78.604,250.539 C79.069,250.128 79.526,249.704 80.014,249.17 C80.752,248.353 81.367,247.506 81.866,246.638 C81.873,246.737 81.888,246.839 81.888,246.938 C81.888,254.511 65.863,262.95 42.869,262.95 L42.869,262.95 Z M8.559,161.374 C9.656,161.938 10.982,162.473 12.518,162.968 C14.354,163.559 16.481,164.094 18.849,164.562 C22.392,165.26 26.476,165.807 30.924,166.156 C34.573,166.44 38.463,166.597 42.508,166.597 C46.554,166.597 50.444,166.44 54.095,166.156 C58.544,165.807 62.629,165.26 66.172,164.562 C67.686,164.264 69.1,163.937 70.401,163.586 C70.454,163.583 70.504,163.576 70.558,163.574 C70.755,163.564 70.953,163.548 71.147,163.53 C71.318,163.514 71.492,163.496 71.663,163.476 C71.86,163.451 72.052,163.42 72.243,163.387 C72.407,163.36 72.569,163.333 72.733,163.299 C72.928,163.259 73.116,163.209 73.307,163.16 C73.459,163.124 73.613,163.089 73.765,163.044 C73.845,163.02 73.927,162.994 74.01,162.968 C74.122,162.935 74.228,162.894 74.337,162.854 C74.476,162.805 74.619,162.762 74.759,162.706 C74.955,162.63 75.142,162.545 75.334,162.457 C75.455,162.402 75.585,162.35 75.707,162.287 C75.914,162.185 76.117,162.068 76.318,161.953 C76.414,161.896 76.515,161.846 76.613,161.788 C76.815,161.662 77.011,161.522 77.208,161.383 C78.771,161.938 79.893,162.482 80.56,162.968 C80.643,163.031 80.722,163.089 80.792,163.147 C80.283,163.576 79.396,164.061 78.138,164.562 C76.818,165.088 75.08,165.634 72.941,166.156 C66.527,167.721 56.468,169.074 42.869,169.074 C29.268,169.074 19.206,167.721 12.794,166.156 C10.654,165.634 8.919,165.088 7.599,164.562 C6.34,164.061 5.453,163.576 4.942,163.147 C5.014,163.089 5.092,163.031 5.175,162.968 C5.847,162.48 6.979,161.932 8.559,161.374 L8.559,161.374 Z M8.396,157.529 C10.579,155.258 22.885,151.641 42.508,151.641 C43.52,151.641 44.505,151.654 45.475,151.672 C45.723,151.901 45.972,152.128 46.221,152.35 C46.305,152.426 46.388,152.495 46.47,152.572 C46.809,152.871 47.149,153.165 47.489,153.454 C47.609,153.555 47.731,153.654 47.849,153.754 C47.992,153.872 48.134,153.993 48.277,154.112 C46.506,154.061 44.702,154.03 42.869,154.03 C28.796,154.03 16.371,155.576 8.886,157.938 C8.69,157.797 8.524,157.66 8.396,157.529 L8.396,157.529 Z M39.584,140.486 C31.283,129.647 26.672,117.088 27.84,108.493 C28.287,105.201 29.527,102.767 31.526,101.254 C33.068,100.09 35.046,99.499 37.407,99.499 C46.271,99.499 58.36,107.507 67.493,119.427 C75.793,130.266 80.402,142.825 79.235,151.423 C79.063,152.701 78.763,153.85 78.353,154.866 C77.881,156.031 77.253,157.016 76.474,157.823 C76.185,158.126 75.882,158.412 75.549,158.663 C74.702,159.303 73.714,159.765 72.608,160.056 C71.792,160.271 70.911,160.389 69.961,160.409 C69.865,160.411 69.771,160.418 69.673,160.418 C66.817,160.418 63.629,159.585 60.314,158.061 C58.21,157.094 56.054,155.852 53.9,154.361 C52.788,153.588 51.672,152.751 50.567,151.858 C49.288,150.819 48.02,149.706 46.773,148.518 C44.259,146.118 41.83,143.42 39.584,140.486 L39.584,140.486 Z M13.532,159.961 C19.967,158.473 29.78,157.217 42.869,157.217 C46.429,157.217 49.746,157.311 52.818,157.475 C52.891,157.519 52.96,157.569 53.032,157.614 C53.141,157.687 53.248,157.756 53.355,157.828 C53.783,158.106 54.212,158.374 54.641,158.634 C54.655,158.643 54.671,158.65 54.685,158.66 C55.094,158.905 55.497,159.14 55.9,159.368 C56.023,159.436 56.144,159.502 56.263,159.568 C56.576,159.74 56.888,159.907 57.198,160.069 C57.323,160.134 57.445,160.197 57.567,160.259 C57.955,160.454 58.342,160.647 58.727,160.825 C58.756,160.839 58.786,160.855 58.816,160.87 C59.23,161.059 59.64,161.24 60.052,161.412 C60.17,161.463 60.287,161.508 60.407,161.558 C60.704,161.676 61.002,161.795 61.293,161.906 C61.427,161.956 61.558,162.005 61.689,162.052 C61.718,162.064 61.747,162.073 61.776,162.083 C59.432,162.44 56.84,162.744 54.01,162.968 L31.009,162.968 C23.364,162.357 17.445,161.186 13.532,159.961 L13.532,159.961 Z M80.387,238.147 L80.387,240.213 L80.192,241.682 C80.17,241.935 80.134,242.188 80.088,242.441 C79.792,244.028 78.968,245.581 77.573,247.123 C77.247,247.48 76.866,247.82 76.329,248.306 C76.195,248.429 76.064,248.554 75.926,248.666 C75.791,248.778 75.642,248.885 75.498,248.995 L75.241,249.186 C68.458,254.377 56.027,257.603 42.804,257.603 C23.555,257.603 7.251,250.932 5.549,242.562 C5.489,242.271 5.444,241.977 5.421,241.682 L5.356,241.166 L5.356,167.006 C11.96,170.109 26.27,172.26 42.869,172.26 C59.47,172.26 73.783,170.109 80.387,167.004 L80.387,238.147 L80.387,238.147 Z M83.569,241.863 L83.569,164.822 C84.029,164.28 84.281,163.72 84.281,163.147 C84.281,161.643 82.614,160.224 79.679,158.972 C85.868,150.709 82.011,133.146 70.022,117.49 C69.647,117.005 69.269,116.527 68.89,116.054 C68.771,115.908 68.655,115.766 68.538,115.623 C68.264,115.286 67.986,114.951 67.706,114.622 C67.584,114.476 67.458,114.331 67.335,114.187 C67.004,113.803 66.672,113.423 66.34,113.05 C66.278,112.982 66.215,112.911 66.155,112.842 C65.762,112.405 65.364,111.98 64.964,111.558 C64.851,111.439 64.74,111.323 64.626,111.206 C64.328,110.896 64.03,110.59 63.726,110.286 C63.599,110.16 63.471,110.03 63.341,109.901 C63.016,109.581 62.689,109.267 62.365,108.957 C62.277,108.874 62.192,108.791 62.103,108.708 C61.693,108.321 61.278,107.942 60.863,107.571 C60.767,107.487 60.672,107.404 60.576,107.319 C60.252,107.032 59.925,106.751 59.598,106.473 C59.47,106.365 59.338,106.257 59.211,106.148 C58.886,105.88 58.56,105.612 58.237,105.352 C58.138,105.273 58.038,105.195 57.939,105.114 C57.514,104.78 57.088,104.451 56.661,104.133 C56.599,104.088 56.538,104.044 56.477,103.999 C56.111,103.731 55.748,103.466 55.38,103.21 C55.262,103.125 55.141,103.045 55.022,102.961 C54.695,102.735 54.366,102.512 54.037,102.298 C53.932,102.227 53.828,102.158 53.722,102.089 C53.291,101.811 52.861,101.538 52.431,101.278 C52.425,101.276 52.421,101.274 52.417,101.272 C52,101.019 51.58,100.777 51.165,100.542 C51.052,100.479 50.939,100.416 50.827,100.356 C50.502,100.177 50.18,100.005 49.856,99.837 C49.744,99.777 49.634,99.719 49.521,99.663 C49.11,99.454 48.699,99.252 48.289,99.062 C48.283,99.059 48.275,99.055 48.27,99.052 C47.847,98.856 47.428,98.673 47.01,98.498 C46.905,98.453 46.801,98.413 46.697,98.368 C46.381,98.24 46.068,98.117 45.756,98 C45.638,97.955 45.521,97.91 45.405,97.871 C45.058,97.746 44.716,97.626 44.372,97.516 C44.309,97.495 44.248,97.472 44.186,97.455 C43.787,97.327 43.388,97.213 42.991,97.106 C42.892,97.079 42.794,97.056 42.699,97.031 C42.4,96.955 42.103,96.884 41.808,96.821 C41.687,96.794 41.564,96.767 41.443,96.743 C41.147,96.685 40.856,96.632 40.565,96.584 C40.471,96.568 40.375,96.551 40.281,96.536 C39.907,96.48 39.538,96.435 39.172,96.4 C39.084,96.392 38.996,96.387 38.909,96.38 C38.63,96.357 38.35,96.34 38.074,96.33 C37.951,96.325 37.828,96.322 37.707,96.32 C37.606,96.319 37.503,96.311 37.402,96.311 C37.287,96.311 37.176,96.322 37.06,96.323 C36.877,96.327 36.697,96.332 36.518,96.343 C36.321,96.352 36.124,96.369 35.929,96.386 C35.754,96.402 35.583,96.418 35.412,96.44 C35.217,96.464 35.025,96.496 34.835,96.529 C34.669,96.557 34.503,96.583 34.341,96.616 C34.149,96.656 33.961,96.705 33.772,96.752 C33.618,96.792 33.462,96.828 33.308,96.873 C33.117,96.928 32.932,96.995 32.744,97.061 C32.6,97.11 32.457,97.155 32.316,97.208 C32.124,97.284 31.933,97.373 31.746,97.457 C31.62,97.515 31.492,97.566 31.368,97.627 C31.161,97.73 30.961,97.846 30.759,97.962 C30.662,98.019 30.561,98.068 30.463,98.129 C30.17,98.31 29.884,98.505 29.606,98.715 C20.503,105.599 23.841,125.167 37.054,142.42 C37.429,142.91 37.807,143.389 38.19,143.865 C38.301,144.002 38.414,144.139 38.527,144.276 C38.808,144.622 39.094,144.965 39.381,145.305 C39.496,145.442 39.614,145.58 39.73,145.715 C40.075,146.118 40.422,146.514 40.773,146.904 C40.82,146.955 40.865,147.011 40.912,147.061 C41.312,147.506 41.716,147.938 42.12,148.367 C42.148,148.397 42.177,148.428 42.206,148.459 C21.645,148.497 5.027,152.54 5.027,157.529 C5.027,158.081 5.244,158.625 5.638,159.154 C2.961,160.358 1.457,161.714 1.457,163.147 C1.457,163.722 1.709,164.281 2.169,164.826 L2.169,241.138 L2.19,241.823 C1.202,243.45 0.663,245.165 0.663,246.938 C0.663,257.54 19.556,266.138 42.869,266.138 C66.179,266.138 85.071,257.54 85.071,246.938 C85.071,245.178 84.542,243.479 83.569,241.863 L83.569,241.863 Z" id="Fill-13" fill="#1A1918"></path>
            <path d="M51.209,110.073 C51.251,110.096 51.294,110.118 51.335,110.143" id="Fill-14" fill="#1A1918"></path>
            <path d="M51.209,110.073 C51.251,110.096 51.294,110.118 51.335,110.143" id="Stroke-15" stroke-linecap="round" stroke-linejoin="round"></path>
            <path d="M56.235,150.333 C56.199,150.316 56.164,150.293 56.126,150.273" id="Fill-16" fill="#1A1918"></path>
            <path d="M56.235,150.333 C56.199,150.316 56.164,150.293 56.126,150.273" id="Stroke-17" stroke-linecap="round" stroke-linejoin="round"></path>
            <path d="M44.299,139.789 C43.889,139.29 43.48,138.784 43.08,138.263 C39.229,133.232 36.521,127.97 35.098,123.227 C33.442,118.753 32.73,114.582 33.181,111.255 C33.48,109.052 34.271,107.45 35.536,106.492 C36.502,105.763 37.775,105.393 39.314,105.392 C42.779,105.392 47.087,107.18 51.49,110.24 C51.438,110.208 51.386,110.175 51.334,110.144 C51.392,110.179 51.452,110.218 51.51,110.253 C51.873,110.472 52.237,110.701 52.605,110.941 C52.72,111.015 52.837,111.094 52.954,111.172 C53.377,111.455 53.8,111.748 54.225,112.06 C54.289,112.108 54.355,112.158 54.418,112.206 C54.8,112.487 55.183,112.782 55.564,113.087 C55.672,113.172 55.781,113.258 55.889,113.345 C56.312,113.689 56.737,114.045 57.161,114.413 C57.249,114.49 57.335,114.571 57.422,114.646 C57.796,114.976 58.165,115.315 58.535,115.663 C58.627,115.749 58.713,115.83 58.803,115.915 C59.224,116.318 59.644,116.736 60.061,117.163 C60.156,117.261 60.249,117.359 60.341,117.455 C60.724,117.854 61.102,118.259 61.48,118.677 C61.537,118.738 61.591,118.797 61.648,118.858 C62.06,119.32 62.469,119.797 62.875,120.281 C62.969,120.396 63.063,120.509 63.157,120.624 C63.568,121.125 63.974,121.628 64.376,122.152 C68.235,127.194 70.948,132.464 72.368,137.217 C74.015,141.677 74.726,145.838 74.275,149.16 C74.104,150.423 73.765,151.487 73.269,152.344 C72.905,152.982 72.458,153.514 71.919,153.922 C71.443,154.28 70.895,154.548 70.278,154.735 C69.638,154.925 68.931,155.023 68.148,155.023 C65.821,155.023 63.117,154.201 60.26,152.753 C58.857,152.039 57.419,151.182 55.967,150.174 C56.02,150.205 56.074,150.241 56.126,150.273 C56.066,150.237 56.007,150.197 55.947,150.158 C55.378,149.765 54.811,149.351 54.241,148.911 C54.163,148.907 54.084,148.899 54.003,148.892 C53.746,148.715 53.489,148.54 53.229,148.352 C53.169,148.307 53.106,148.26 53.046,148.213 C52.661,147.929 52.273,147.631 51.886,147.323 C51.783,147.24 51.675,147.156 51.571,147.07 C51.145,146.725 50.718,146.368 50.293,145.997 C50.209,145.923 50.127,145.847 50.043,145.774 C49.664,145.44 49.29,145.097 48.915,144.743 C48.83,144.663 48.743,144.584 48.657,144.502 C48.233,144.097 47.814,143.678 47.393,143.248 C47.301,143.152 47.21,143.053 47.115,142.957 C46.731,142.559 46.352,142.152 45.973,141.733 C45.918,141.674 45.864,141.616 45.81,141.556 C45.396,141.095 44.986,140.615 44.581,140.13 C44.485,140.018 44.393,139.904 44.299,139.789 M46.085,145.925 C46.595,146.448 47.106,146.955 47.624,147.448 C47.718,147.539 47.814,147.629 47.908,147.719 C48.221,148.012 48.535,148.303 48.849,148.589 C49.002,148.726 49.152,148.861 49.305,148.992 C49.397,149.073 49.486,149.158 49.58,149.237 C50.098,149.693 50.621,150.129 51.144,150.553 C51.259,150.645 51.372,150.737 51.487,150.828 C51.973,151.213 52.461,151.591 52.949,151.949 C52.976,151.97 53.003,151.992 53.027,152.012 C53.056,152.032 53.086,152.055 53.115,152.074 C53.639,152.46 54.167,152.824 54.688,153.174 C54.813,153.259 54.935,153.337 55.058,153.418 C55.584,153.763 56.11,154.096 56.633,154.409 C56.656,154.421 56.679,154.435 56.701,154.448 C56.774,154.489 56.844,154.529 56.917,154.571 C57.348,154.822 57.775,155.057 58.203,155.285 C58.324,155.35 58.449,155.415 58.57,155.478 C59.076,155.738 59.58,155.984 60.076,156.207 C60.158,156.245 60.238,156.277 60.319,156.313 C60.76,156.507 61.196,156.684 61.63,156.85 C61.742,156.893 61.855,156.937 61.966,156.98 C62.445,157.155 62.922,157.313 63.392,157.448 C63.495,157.481 63.602,157.51 63.706,157.537 C64.115,157.652 64.521,157.754 64.919,157.837 C65.008,157.858 65.097,157.877 65.187,157.898 C65.638,157.987 66.081,158.054 66.519,158.104 C66.629,158.116 66.739,158.126 66.849,158.137 C67.25,158.173 67.644,158.198 68.028,158.202 C68.069,158.202 68.111,158.206 68.148,158.206 C68.163,158.206 68.176,158.204 68.189,158.204 C68.233,158.204 68.273,158.202 68.313,158.202 C68.565,158.199 68.811,158.189 69.056,158.17 C69.145,158.164 69.229,158.153 69.315,158.146 C69.51,158.126 69.701,158.104 69.891,158.076 C69.992,158.059 70.09,158.04 70.187,158.023 C70.358,157.991 70.53,157.955 70.697,157.913 C70.799,157.891 70.902,157.864 71,157.837 C71.163,157.792 71.321,157.743 71.479,157.69 C71.576,157.658 71.672,157.626 71.77,157.588 C71.928,157.531 72.08,157.465 72.236,157.396 C72.324,157.358 72.412,157.323 72.499,157.278 C72.662,157.199 72.821,157.112 72.98,157.02 C73.033,156.989 73.093,156.964 73.146,156.93 C73.16,156.924 73.175,156.91 73.189,156.904 C73.412,156.765 73.629,156.621 73.839,156.46 C73.988,156.348 74.124,156.225 74.264,156.105 C75.068,155.404 75.725,154.548 76.233,153.562 C79.84,146.561 76.092,132.942 66.565,120.497 C66.083,119.867 65.59,119.258 65.097,118.656 C64.984,118.517 64.872,118.379 64.755,118.242 C64.267,117.657 63.773,117.08 63.273,116.521 C63.209,116.451 63.146,116.385 63.082,116.315 C62.624,115.807 62.162,115.312 61.696,114.827 C61.586,114.714 61.478,114.598 61.368,114.487 C60.86,113.966 60.351,113.46 59.837,112.968 C59.739,112.873 59.64,112.782 59.542,112.69 C59.083,112.258 58.622,111.834 58.157,111.426 C58.064,111.342 57.97,111.256 57.877,111.174 C57.359,110.722 56.84,110.286 56.32,109.865 C56.201,109.769 56.081,109.677 55.964,109.582 C55.483,109.198 54.999,108.825 54.519,108.471 C54.458,108.426 54.399,108.379 54.339,108.337 C53.816,107.954 53.294,107.592 52.773,107.243 C52.645,107.157 52.521,107.075 52.395,106.992 C51.87,106.65 51.346,106.317 50.829,106.006 C50.8,105.99 50.77,105.977 50.74,105.959 C50.245,105.666 49.752,105.392 49.26,105.133 C49.133,105.064 49.007,104.999 48.882,104.935 C48.379,104.674 47.879,104.43 47.384,104.209 C47.299,104.169 47.216,104.135 47.133,104.098 C46.696,103.906 46.261,103.73 45.832,103.565 C45.718,103.521 45.603,103.477 45.488,103.434 C45.011,103.26 44.537,103.102 44.067,102.965 C43.961,102.931 43.856,102.904 43.749,102.875 C43.343,102.76 42.938,102.66 42.542,102.576 C42.45,102.556 42.358,102.535 42.269,102.515 C41.816,102.428 41.373,102.361 40.941,102.31 C40.828,102.297 40.72,102.288 40.608,102.277 C40.21,102.241 39.814,102.215 39.431,102.213 C39.391,102.213 39.35,102.205 39.31,102.205 C39.296,102.205 39.283,102.207 39.267,102.207 C39.224,102.207 39.18,102.212 39.137,102.213 C38.891,102.214 38.649,102.225 38.412,102.243 C38.311,102.25 38.21,102.263 38.111,102.275 C37.93,102.292 37.756,102.311 37.58,102.337 C37.467,102.355 37.359,102.376 37.247,102.398 C37.086,102.426 36.93,102.458 36.775,102.496 C36.665,102.522 36.551,102.552 36.44,102.582 C36.29,102.622 36.142,102.668 35.995,102.718 C35.889,102.752 35.784,102.789 35.678,102.828 C35.529,102.885 35.384,102.946 35.24,103.011 C35.144,103.05 35.047,103.092 34.954,103.137 C34.797,103.215 34.647,103.299 34.494,103.384 C34.419,103.427 34.34,103.468 34.266,103.512 C34.043,103.647 33.827,103.793 33.617,103.952 C26.522,109.315 29.789,125.416 40.89,139.915 C41.373,140.548 41.864,141.157 42.362,141.762 C42.473,141.899 42.585,142.034 42.698,142.167 C43.187,142.755 43.684,143.333 44.185,143.893 C44.246,143.962 44.308,144.025 44.369,144.094 C44.831,144.605 45.295,145.102 45.763,145.59 C45.871,145.701 45.977,145.816 46.085,145.925" id="Fill-18" fill="#1A1918"></path>
            <path d="M55.565,113.087 C55.183,112.783 54.8,112.488 54.418,112.206" id="Fill-19" fill="#1A1918"></path>
            <path d="M55.565,113.087 C55.183,112.783 54.8,112.488 54.418,112.206" id="Stroke-20" stroke-linecap="round" stroke-linejoin="round"></path>
            <path d="M53.046,148.213 C52.661,147.929 52.273,147.629 51.886,147.323" id="Fill-21" fill="#1A1918"></path>
            <path d="M53.046,148.213 C52.661,147.929 52.273,147.629 51.886,147.323" id="Stroke-22" stroke-linecap="round" stroke-linejoin="round"></path>
            <path d="M43.081,138.263 C43.481,138.784 43.887,139.29 44.299,139.789" id="Fill-23" fill="#1A1918"></path>
            <path d="M43.081,138.263 C43.481,138.784 43.887,139.29 44.299,139.789" id="Stroke-24" stroke-linecap="round" stroke-linejoin="round"></path>
            <path d="M52.954,111.172 C53.377,111.456 53.801,111.749 54.226,112.06" id="Fill-25" fill="#1A1918"></path>
            <path d="M52.954,111.172 C53.377,111.456 53.801,111.749 54.226,112.06" id="Stroke-26" stroke-linecap="round" stroke-linejoin="round"></path>
            <path d="M51.571,147.07 C51.145,146.725 50.718,146.368 50.293,145.997" id="Fill-27" fill="#1A1918"></path>
            <path d="M51.571,147.07 C51.145,146.725 50.718,146.368 50.293,145.997" id="Stroke-28" stroke-linecap="round" stroke-linejoin="round"></path>
            <path d="M45.81,141.556 C45.396,141.095 44.986,140.615 44.581,140.13" id="Fill-29" fill="#1A1918"></path>
            <path d="M45.81,141.556 C45.396,141.095 44.986,140.615 44.581,140.13" id="Stroke-30" stroke-linecap="round" stroke-linejoin="round"></path>
            <path d="M48.656,144.502 C48.233,144.097 47.813,143.678 47.393,143.25" id="Fill-31" fill="#1A1918"></path>
            <path d="M48.656,144.502 C48.233,144.097 47.813,143.678 47.393,143.25" id="Stroke-32" stroke-linecap="round" stroke-linejoin="round"></path>
            <path d="M50.043,145.774 C49.664,145.44 49.29,145.097 48.915,144.743" id="Fill-33" fill="#1A1918"></path>
            <path d="M50.043,145.774 C49.664,145.44 49.29,145.097 48.915,144.743" id="Stroke-34" stroke-linecap="round" stroke-linejoin="round"></path>
            <path d="M45.973,141.733 C46.352,142.154 46.731,142.559 47.115,142.959" id="Fill-35" fill="#1A1918"></path>
            <path d="M45.973,141.733 C46.352,142.154 46.731,142.559 47.115,142.959" id="Stroke-36" stroke-linecap="round" stroke-linejoin="round"></path>
            <path d="M58.803,115.915 C59.224,116.318 59.644,116.736 60.061,117.162" id="Fill-37" fill="#1A1918"></path>
            <path d="M58.803,115.915 C59.224,116.318 59.644,116.736 60.061,117.162" id="Stroke-38" stroke-linecap="round" stroke-linejoin="round"></path>
            <path d="M61.648,118.858 C62.06,119.32 62.47,119.797 62.875,120.281" id="Fill-39" fill="#1A1918"></path>
            <path d="M61.648,118.858 C62.06,119.32 62.47,119.797 62.875,120.281" id="Stroke-40" stroke-linecap="round" stroke-linejoin="round"></path>
            <path d="M58.535,115.663 C58.165,115.315 57.794,114.976 57.422,114.646" id="Fill-41" fill="#1A1918"></path>
            <path d="M58.535,115.663 C58.165,115.315 57.794,114.976 57.422,114.646" id="Stroke-42" stroke-linecap="round" stroke-linejoin="round"></path>
            <path d="M63.157,120.624 C63.568,121.125 63.974,121.628 64.376,122.152" id="Fill-43" fill="#1A1918"></path>
            <path d="M63.157,120.624 C63.568,121.125 63.974,121.628 64.376,122.152" id="Stroke-44" stroke-linecap="round" stroke-linejoin="round"></path>
            <path d="M61.48,118.677 C61.102,118.258 60.726,117.854 60.343,117.455" id="Fill-45" fill="#1A1918"></path>
            <path d="M61.48,118.677 C61.102,118.258 60.726,117.854 60.343,117.455" id="Stroke-46" stroke-linecap="round" stroke-linejoin="round"></path>
            <path d="M57.161,114.413 C56.737,114.044 56.312,113.689 55.889,113.344" id="Fill-47" fill="#1A1918"></path>
            <path d="M57.161,114.413 C56.737,114.044 56.312,113.689 55.889,113.344" id="Stroke-48" stroke-linecap="round" stroke-linejoin="round"></path>
            <path d="M48.656,144.502 C48.743,144.584 48.83,144.663 48.915,144.743" id="Fill-49" fill="#1A1918"></path>
            <path d="M48.656,144.502 C48.743,144.584 48.83,144.663 48.915,144.743" id="Stroke-50" stroke-linecap="round" stroke-linejoin="round"></path>
            <path d="M61.648,118.858 C61.591,118.797 61.537,118.738 61.48,118.677" id="Fill-51" fill="#1A1918"></path>
            <path d="M61.648,118.858 C61.591,118.797 61.537,118.738 61.48,118.677" id="Stroke-52" stroke-linecap="round" stroke-linejoin="round"></path>
            <path d="M47.115,142.957 C47.21,143.056 47.301,143.155 47.394,143.25" id="Fill-53" fill="#1A1918"></path>
            <path d="M47.115,142.957 C47.21,143.056 47.301,143.155 47.394,143.25" id="Stroke-54" stroke-linecap="round" stroke-linejoin="round"></path>
            <path d="M51.887,147.323 C51.783,147.24 51.675,147.156 51.572,147.07" id="Fill-55" fill="#1A1918"></path>
            <path d="M51.887,147.323 C51.783,147.24 51.675,147.156 51.572,147.07" id="Stroke-56" stroke-linecap="round" stroke-linejoin="round"></path>
            <path d="M55.889,113.345 C55.781,113.258 55.673,113.173 55.564,113.087" id="Fill-57" fill="#1A1918"></path>
            <path d="M55.889,113.345 C55.781,113.258 55.673,113.173 55.564,113.087" id="Stroke-58" stroke-linecap="round" stroke-linejoin="round"></path>
            <path d="M50.293,145.997 C50.209,145.923 50.127,145.847 50.043,145.774" id="Fill-59" fill="#1A1918"></path>
            <path d="M50.293,145.997 C50.209,145.923 50.127,145.847 50.043,145.774" id="Stroke-60" stroke-linecap="round" stroke-linejoin="round"></path>
            <path d="M63.157,120.624 C63.063,120.509 62.969,120.396 62.875,120.281" id="Fill-61" fill="#1A1918"></path>
            <path d="M63.157,120.624 C63.063,120.509 62.969,120.396 62.875,120.281" id="Stroke-62" stroke-linecap="round" stroke-linejoin="round"></path>
            <path d="M60.342,117.455 C60.249,117.358 60.155,117.26 60.06,117.162" id="Fill-63" fill="#1A1918"></path>
            <path d="M60.342,117.455 C60.249,117.358 60.155,117.26 60.06,117.162" id="Stroke-64" stroke-linecap="round" stroke-linejoin="round"></path>
            <path d="M58.803,115.915 C58.713,115.83 58.625,115.749 58.535,115.665" id="Fill-65" fill="#1A1918"></path>
            <path d="M58.803,115.915 C58.713,115.83 58.625,115.749 58.535,115.665" id="Stroke-66" stroke-linecap="round" stroke-linejoin="round"></path>
            <path d="M53.229,148.352 C53.169,148.307 53.107,148.26 53.045,148.213" id="Fill-67" fill="#1A1918"></path>
            <path d="M53.229,148.352 C53.169,148.307 53.107,148.26 53.045,148.213" id="Stroke-68" stroke-linecap="round" stroke-linejoin="round"></path>
            <path d="M45.81,141.556 C45.864,141.616 45.918,141.674 45.972,141.733" id="Fill-69" fill="#1A1918"></path>
            <path d="M45.81,141.556 C45.864,141.616 45.918,141.674 45.972,141.733" id="Stroke-70" stroke-linecap="round" stroke-linejoin="round"></path>
            <path d="M57.422,114.646 C57.335,114.57 57.247,114.49 57.161,114.413" id="Fill-71" fill="#1A1918"></path>
            <path d="M57.422,114.646 C57.335,114.57 57.247,114.49 57.161,114.413" id="Stroke-72" stroke-linecap="round" stroke-linejoin="round"></path>
            <path d="M52.954,111.172 L52.606,110.94" id="Fill-73" fill="#1A1918"></path>
            <path d="M52.954,111.172 L52.606,110.94" id="Stroke-74" stroke-linecap="round" stroke-linejoin="round"></path>
            <path d="M54.418,112.206 C54.354,112.158 54.289,112.108 54.225,112.06" id="Fill-75" fill="#1A1918"></path>
            <path d="M54.418,112.206 C54.354,112.158 54.289,112.108 54.225,112.06" id="Stroke-76" stroke-linecap="round" stroke-linejoin="round"></path>
            <path d="M44.299,139.789 C44.393,139.904 44.485,140.018 44.581,140.13" id="Fill-77" fill="#1A1918"></path>
            <path d="M44.299,139.789 C44.393,139.904 44.485,140.018 44.581,140.13" id="Stroke-78" stroke-linecap="round" stroke-linejoin="round"></path>
            <path d="M39.436,114.439 C39.52,113.819 39.726,113.002 40.227,112.621 C40.518,112.397 40.956,112.289 41.527,112.289 C45.34,112.289 52.76,116.935 59.566,125.819 C66.095,134.343 68.529,142.239 68.02,145.973 C67.938,146.593 67.731,147.412 67.23,147.792 C66.94,148.014 66.502,148.126 65.929,148.126 C62.116,148.126 54.698,143.477 47.89,134.594 C41.358,126.066 38.927,118.167 39.436,114.439 M46.781,138.31 C47.163,138.771 47.547,139.228 47.936,139.668 C48.006,139.751 48.082,139.832 48.154,139.912 C48.518,140.324 48.882,140.725 49.251,141.117 C49.305,141.173 49.356,141.234 49.41,141.287 C49.805,141.708 50.205,142.114 50.603,142.507 C50.693,142.599 50.785,142.689 50.874,142.776 C51.273,143.167 51.674,143.548 52.076,143.917 C52.126,143.962 52.172,144.005 52.222,144.049 C52.596,144.39 52.969,144.717 53.342,145.039 C53.42,145.104 53.498,145.171 53.575,145.239 C53.972,145.572 54.369,145.894 54.764,146.203 C54.845,146.268 54.928,146.33 55.011,146.394 C55.407,146.702 55.801,147 56.195,147.28 C56.208,147.286 56.222,147.298 56.233,147.304 C56.636,147.591 57.035,147.86 57.433,148.119 C57.514,148.171 57.594,148.225 57.675,148.274 C58.062,148.523 58.447,148.757 58.83,148.977 C58.888,149.01 58.946,149.039 59.002,149.073 C59.25,149.212 59.495,149.346 59.737,149.471 C59.851,149.531 59.966,149.59 60.079,149.646 C60.124,149.67 60.169,149.693 60.213,149.715 C60.589,149.902 60.961,150.07 61.324,150.221 C61.396,150.252 61.462,150.28 61.532,150.309 C61.901,150.458 62.265,150.598 62.62,150.716 C62.638,150.721 62.652,150.723 62.671,150.727 C63.019,150.841 63.355,150.936 63.689,151.016 C63.743,151.03 63.796,151.043 63.849,151.056 C64.184,151.13 64.51,151.191 64.83,151.234 C64.883,151.238 64.931,151.244 64.984,151.251 C65.302,151.287 65.614,151.307 65.915,151.309 L65.934,151.309 C66.217,151.309 66.491,151.291 66.754,151.255 C66.812,151.251 66.869,151.242 66.925,151.234 C67.18,151.196 67.427,151.146 67.665,151.074 C67.672,151.072 67.679,151.072 67.686,151.068 C67.836,151.025 67.986,150.967 68.13,150.908 C68.212,150.872 68.29,150.837 68.371,150.799 C68.423,150.775 68.479,150.745 68.531,150.721 C68.745,150.607 68.955,150.484 69.15,150.335 C73.767,146.841 70.608,134.992 62.094,123.882 C61.709,123.379 61.317,122.89 60.924,122.407 C60.84,122.306 60.757,122.205 60.675,122.102 C60.292,121.642 59.911,121.188 59.524,120.746 C59.447,120.661 59.372,120.578 59.297,120.493 C58.94,120.09 58.581,119.695 58.217,119.31 C58.16,119.247 58.101,119.182 58.042,119.12 C57.65,118.706 57.256,118.306 56.863,117.913 C56.767,117.818 56.67,117.723 56.572,117.628 C56.18,117.243 55.783,116.865 55.389,116.503 C55.33,116.448 55.271,116.397 55.212,116.344 C54.854,116.016 54.494,115.701 54.136,115.395 C54.046,115.319 53.959,115.24 53.869,115.167 C53.481,114.839 53.095,114.526 52.71,114.223 C52.615,114.147 52.517,114.074 52.422,114 C52.051,113.714 51.68,113.437 51.313,113.172 C51.278,113.149 51.243,113.12 51.21,113.098 C50.82,112.821 50.435,112.563 50.049,112.311 C49.953,112.248 49.858,112.187 49.763,112.125 C49.388,111.887 49.012,111.658 48.643,111.447 C48.568,111.404 48.494,111.363 48.419,111.323 C48.082,111.133 47.746,110.953 47.414,110.785 C47.353,110.755 47.29,110.72 47.229,110.691 C46.862,110.511 46.504,110.349 46.148,110.199 C46.068,110.163 45.985,110.131 45.904,110.097 C45.546,109.952 45.19,109.816 44.843,109.702 C44.816,109.693 44.79,109.685 44.76,109.677 C44.427,109.569 44.1,109.478 43.779,109.4 C43.719,109.386 43.661,109.371 43.602,109.357 C43.269,109.281 42.945,109.224 42.63,109.182 C42.576,109.176 42.524,109.171 42.47,109.164 C42.152,109.128 41.839,109.103 41.538,109.103 L41.521,109.103 C41.24,109.103 40.966,109.125 40.7,109.158 C40.644,109.164 40.586,109.174 40.532,109.182 C40.276,109.219 40.03,109.269 39.793,109.338 C39.786,109.342 39.778,109.342 39.771,109.345 C39.534,109.417 39.307,109.51 39.088,109.614 C39.034,109.639 38.98,109.667 38.927,109.696 C38.712,109.807 38.502,109.931 38.307,110.079 C33.686,113.571 36.85,125.421 45.363,136.534 C45.749,137.036 46.139,137.524 46.533,138.007 C46.614,138.109 46.699,138.211 46.781,138.31" id="Fill-79" fill="#1A1918"></path>
        </g>
    </g>
</svg>