<?xml version="1.0" encoding="UTF-8" standalone="no"?>
<svg width="301px" height="231px" viewBox="0 0 301 231" version="1.1" xmlns="http://www.w3.org/2000/svg" xmlns:xlink="http://www.w3.org/1999/xlink">
    <!-- Generator: Sketch 39.1 (31720) - http://www.bohemiancoding.com/sketch -->
    <title>Page 1</title>
    <desc>Created with Sketch.</desc>
    <defs>
        <polygon id="path-1" points="150.43495 231 0 231 0 0.734 150.43495 0.734 300.8699 0.734 300.8699 231 150.43495 231"></polygon>
    </defs>
    <g id="Page-1" stroke="none" stroke-width="1" fill="none" fill-rule="evenodd">
        <g transform="translate(0.000000, -1.000000)">
            <path d="M178.7505,226.7328 C178.7505,226.7328 146.1345,181.9548 49.3905,159.2898 C54.3665,152.6558 78.1375,128.8828 82.5605,128.8828 C86.9825,128.8828 42.7575,113.3938 42.7575,113.3938 C42.7575,113.3938 71.5035,94.0458 79.2435,92.3868 C86.9825,90.7288 24.7715,69.9838 19.5385,65.8518 C35.5705,63.6398 101.9095,56.4538 103.0145,54.2428 C104.1205,52.0308 57.1305,31.0238 57.1305,31.0238 C57.1305,31.0238 128.4445,34.8938 183.1735,5.0418 C221.8705,24.3898 276.0475,59.2178 276.0475,59.2178 L260.5685,65.8518 L293.7375,84.6478 L260.0165,99.0208 L267.2015,105.1018 C267.2015,105.1018 237.9025,118.3718 231.2695,127.2228 C245.6425,134.9648 268.8605,149.3378 268.8605,149.3378 C268.8605,149.3378 230.7165,166.4758 178.7505,226.7328" id="Fill-1" fill="#FEFEFE"></path>
            <g id="Group-5" transform="translate(0.000000, 0.266000)">
                <mask id="mask-2" fill="white">
                    <use xlink:href="#path-1"></use>
                </mask>
                <g id="Clip-4"></g>
                <path d="M260.1909,95.832 C257.7979,96.551 255.3739,97.221 252.9349,97.86 C237.6339,101.867 221.4699,104.305 204.5029,105.127 C203.0239,105.199 201.5359,105.245 200.0459,105.29 C199.9289,105.223 199.9419,105.273 199.9249,105.294 C199.9119,105.296 199.8999,105.296 199.8859,105.296 C199.8729,105.29 199.8599,105.29 199.8299,105.273 C190.6939,104.927 181.8989,101.495 174.4209,97.32 C167.2399,93.31 160.9749,88.35 155.9259,83.992 L153.8399,82.191 L152.0329,84.268 C142.9989,94.668 107.1999,92.216 92.8779,90.239 C92.5409,90.193 92.2029,90.146 91.8919,90.101 L91.8789,90.185 C89.1019,89.381 86.3719,88.563 83.6889,87.732 C83.7469,87.71 83.8059,87.686 83.8669,87.664 C83.8059,87.686 83.7439,87.708 83.6859,87.732 C61.6089,80.903 42.6519,73.244 28.6499,66.977 C50.5479,66.008 78.8529,61.264 105.9189,55.643 C105.9379,55.651 105.9559,55.659 105.9729,55.667 C106.4979,55.874 107.0219,56.083 107.5489,56.29 C109.0579,56.881 110.5779,57.471 112.1139,58.057 C112.3829,58.159 112.6529,58.259 112.9229,58.361 C113.1339,58.441 113.3459,58.519 113.5569,58.599 L113.5539,58.758 C113.6249,58.76 113.7879,58.761 113.9949,58.763 C115.1129,59.182 116.2319,59.596 117.3609,60.01 C117.9019,60.208 118.4449,60.404 118.9909,60.6 C120.3429,61.09 121.7069,61.573 123.0789,62.051 C123.4529,62.183 123.8229,62.315 124.1969,62.445 C125.8709,63.024 127.5609,63.593 129.2599,64.155 C129.7799,64.328 130.3039,64.496 130.8259,64.667 C132.1679,65.105 133.5139,65.537 134.8669,65.96 C135.3559,66.114 135.8389,66.268 136.3269,66.42 C138.0579,66.956 139.7999,67.48 141.5499,67.994 C142.0109,68.129 142.4749,68.26 142.9349,68.392 C144.3349,68.795 145.7369,69.192 147.1469,69.58 C147.6869,69.728 148.2289,69.877 148.7709,70.024 C148.7949,70.031 148.8189,70.038 148.8419,70.044 L148.8449,70.044 C150.6099,70.519 152.3789,70.985 154.1559,71.432 C154.4649,71.509 154.7759,71.582 155.0879,71.659 C156.6379,72.045 158.1939,72.417 159.7559,72.778 C160.3139,72.908 160.8729,73.037 161.4329,73.162 C161.7369,73.231 162.0419,73.305 162.3479,73.373 C163.7009,73.674 165.0559,73.962 166.4159,74.244 C166.6289,74.288 166.8409,74.336 167.0539,74.38 C168.8869,74.757 170.7259,75.107 172.5669,75.445 C173.1129,75.546 173.6609,75.643 174.2069,75.738 C175.7109,76.006 177.2169,76.259 178.7239,76.499 C179.1369,76.563 179.5489,76.635 179.9639,76.699 C181.8039,76.982 183.6469,77.24 185.4879,77.478 C185.9809,77.544 186.4729,77.6 186.9649,77.66 C188.4389,77.844 189.9109,78.01 191.3829,78.16 C191.8829,78.213 192.3829,78.268 192.8829,78.315 C194.7279,78.494 196.5719,78.648 198.4129,78.776 C198.7929,78.803 199.1729,78.82 199.5519,78.845 C199.9059,78.867 200.2589,78.887 200.6139,78.909 C201.3769,79.021 202.1289,79.096 202.8549,79.096 L202.8549,79.034 C203.2809,79.053 203.7039,79.064 204.1269,79.08 C204.6579,79.101 205.1879,79.122 205.7169,79.14 C207.5639,79.197 209.4089,79.234 211.2449,79.236 C211.2689,79.236 211.2969,79.239 211.3189,79.239 C211.6469,79.239 211.9709,79.226 212.2959,79.225 C213.4819,79.217 214.6719,79.205 215.8519,79.174 C216.4449,79.156 217.0319,79.128 217.6209,79.106 C217.7239,79.103 217.8289,79.098 217.9319,79.094 C218.7739,79.061 219.6129,79.028 220.4519,78.981 C221.0929,78.945 221.7339,78.898 222.3769,78.854 C223.2599,78.794 224.1419,78.731 225.0239,78.656 C225.6799,78.597 226.3369,78.534 226.9919,78.468 C227.5659,78.412 228.1429,78.36 228.7159,78.295 C228.9999,78.264 229.2829,78.222 229.5689,78.188 C230.2239,78.111 230.8789,78.029 231.5309,77.943 C232.3879,77.83 233.2439,77.704 234.0949,77.575 C234.7349,77.477 235.3749,77.379 236.0099,77.274 C236.8869,77.127 237.7599,76.965 238.6299,76.802 C239.2299,76.688 239.8329,76.579 240.4289,76.458 C241.3879,76.261 242.3389,76.046 243.2909,75.827 C243.7879,75.712 244.2919,75.608 244.7879,75.488 C246.2229,75.14 247.6469,74.769 249.0599,74.367 C249.2519,74.314 249.4379,74.251 249.6269,74.196 C250.8569,73.84 252.0819,73.468 253.2969,73.069 C253.7889,72.908 254.2769,72.728 254.7699,72.559 C255.6749,72.249 256.5769,71.935 257.4709,71.6 C258.0209,71.393 258.5649,71.173 259.1119,70.959 C259.8719,70.659 260.6309,70.359 261.3819,70.042 C271.5059,75.398 281.1449,80.519 288.9979,84.728 C279.8049,89.129 270.1939,92.826 260.1909,95.832 M230.0739,122.736 C228.3349,123.874 226.6349,125.015 224.9679,126.16 C201.4309,142.328 185.2359,159.088 176.2449,169.62 C156.0169,152.59 121.6919,137.562 92.1699,126.722 C89.8009,125.851 87.4709,125.013 85.1729,124.197 C69.8939,118.773 56.4049,114.591 47.6049,111.993 C57.8909,104.834 70.3779,98.739 83.6989,93.596 C83.9009,93.657 84.1089,93.718 84.3129,93.781 C84.9579,93.976 85.6049,94.171 86.2539,94.367 C87.4049,94.71 88.5689,95.051 89.7359,95.39 C90.4419,95.596 91.1509,95.798 91.8609,96.001 C93.0059,96.326 94.1569,96.65 95.3179,96.972 C95.9759,97.152 96.6379,97.333 97.3009,97.512 C98.2969,97.783 99.2959,98.05 100.3009,98.315 C100.9429,98.483 101.5839,98.654 102.2319,98.823 C103.7519,99.215 105.2819,99.605 106.8229,99.985 C107.3799,100.122 107.9439,100.256 108.5019,100.392 C109.6129,100.662 110.7249,100.928 111.8429,101.189 C112.5299,101.352 113.2189,101.51 113.9099,101.669 C115.0109,101.921 116.1199,102.169 117.2329,102.414 C117.8369,102.547 118.4379,102.682 119.0459,102.814 C120.6459,103.158 122.2539,103.495 123.8709,103.824 C124.5069,103.953 125.1449,104.076 125.7849,104.202 C126.9059,104.424 128.0329,104.642 129.1639,104.855 C129.8559,104.985 130.5509,105.117 131.2459,105.245 C131.4189,105.277 131.5889,105.309 131.7629,105.342 C132.8829,105.544 134.0109,105.741 135.1399,105.933 C135.6479,106.022 136.1529,106.112 136.6629,106.199 C138.3069,106.475 139.9619,106.738 141.6209,106.996 C142.2879,107.097 142.9569,107.197 143.6269,107.296 C144.3629,107.406 145.0999,107.518 145.8389,107.622 C146.2839,107.687 146.7319,107.745 147.1779,107.806 C147.8509,107.898 148.5219,107.993 149.1989,108.085 C150.9199,108.313 152.6479,108.533 154.3839,108.736 C154.8239,108.788 155.2689,108.833 155.7109,108.885 C157.1109,109.045 158.5149,109.194 159.9229,109.338 C160.6109,109.408 161.3009,109.472 161.9919,109.54 C163.2519,109.658 164.5139,109.771 165.7819,109.876 C166.3979,109.928 167.0149,109.982 167.6369,110.032 C169.4189,110.168 171.2049,110.293 172.9969,110.401 C173.5429,110.436 174.0919,110.461 174.6409,110.492 C175.9889,110.565 177.3389,110.634 178.6889,110.69 C179.3679,110.718 180.0439,110.747 180.7229,110.773 C182.1269,110.82 183.5319,110.861 184.9399,110.891 C185.4399,110.902 185.9399,110.919 186.4399,110.926 C188.0689,110.954 189.7009,110.969 191.3359,110.969 C191.4899,110.969 191.6489,110.965 191.8069,110.965 C193.3819,110.96 194.9579,110.935 196.5389,110.907 C197.1909,110.896 197.8419,110.894 198.4969,110.876 C198.5519,110.874 198.6069,110.874 198.6609,110.874 C200.5729,110.824 202.4869,110.749 204.4029,110.66 C204.6709,110.648 204.9349,110.641 205.2019,110.628 C206.4249,110.565 207.6539,110.481 208.8809,110.401 C209.9229,110.336 210.9639,110.28 212.0059,110.203 C212.3609,110.176 212.7159,110.138 213.0719,110.11 C214.9469,109.96 216.8249,109.796 218.7019,109.606 C219.4629,109.529 220.2249,109.434 220.9849,109.347 C222.4589,109.186 223.9299,109.021 225.4049,108.829 C226.2979,108.715 227.1899,108.581 228.0819,108.456 C229.4229,108.265 230.7639,108.078 232.1059,107.866 C233.0629,107.714 234.0189,107.546 234.9759,107.384 C236.2509,107.167 237.5289,106.946 238.8039,106.708 C239.7919,106.523 240.7829,106.322 241.7709,106.124 C243.0129,105.873 244.2539,105.618 245.4949,105.348 C246.5029,105.127 247.5109,104.895 248.5169,104.659 C249.7369,104.376 250.9519,104.083 252.1709,103.778 C253.1859,103.523 254.2019,103.258 255.2169,102.987 C256.4239,102.667 257.6299,102.332 258.8339,101.989 C259.0279,101.934 259.2219,101.885 259.4159,101.83 C260.7949,102.706 262.0899,103.551 263.2659,104.35 C251.0029,110.01 239.9499,116.284 230.0739,122.736 M262.8009,148.583 C233.6949,164.154 194.6759,203.121 178.8999,221.857 C151.2659,187.839 78.6459,163.561 54.2619,156.157 C63.2929,145.635 74.1739,137.156 85.7549,130.319 C117.9859,141.895 157.3509,158.76 176.8349,177.582 C185.2579,167.05 202.9279,147.572 230.2309,129.238 C242.2399,136.267 254.1449,143.305 262.8009,148.583 M173.3439,103.025 C174.7139,103.75 176.1039,104.452 177.5349,105.102 C173.1329,104.892 168.7559,104.585 164.4079,104.195 C158.0419,103.624 151.7439,102.87 145.5329,101.96 C137.2609,100.747 129.1519,99.268 121.2579,97.58 C133.8439,97.398 147.1119,95.614 154.2279,89.805 C157.5839,92.625 161.3969,95.601 165.5929,98.393 C168.0459,100.025 170.6349,101.587 173.3439,103.025 M162.2789,67.733 C162.5039,67.697 162.7279,67.662 162.9489,67.627 C162.7259,67.662 162.5039,67.696 162.2769,67.733 C150.7219,65.118 139.4059,61.818 128.6369,58.176 C139.9649,57.269 155.0739,54.986 164.5759,49.268 C169.6969,55.718 174.5119,61.112 179.0159,65.482 L179.0179,65.483 C180.9479,67.351 182.8149,69.019 184.6269,70.504 C185.2939,71.051 185.9539,71.578 186.6049,72.072 C184.2109,71.769 181.8209,71.418 179.4299,71.039 C173.6809,70.129 167.9529,69.016 162.2789,67.733 M69.5999,33.267 C70.1009,33.267 70.5979,33.27 71.0979,33.27 C132.0709,33.27 173.2929,13.106 184.2499,7.08 C195.4679,13.311 239.0409,37.655 272.3929,58.114 C268.9679,60.268 265.3599,62.187 261.5889,63.898 C259.4229,64.88 257.2039,65.792 254.9249,66.627 C244.1849,70.567 232.2089,72.87 219.0709,73.512 C216.5279,73.637 213.9499,73.71 211.3189,73.71 C209.5999,73.71 207.8759,73.681 206.1469,73.63 C204.4979,73.583 202.8409,73.512 201.1859,73.419 C198.8379,73.037 196.1459,71.853 193.1809,69.955 C191.0639,68.599 188.8049,66.871 186.4139,64.781 L186.4139,64.78 C180.7099,59.788 174.2839,52.768 167.3509,43.859 L165.6969,41.73 L163.5269,43.334 C152.3269,51.632 126.9989,52.98 117.4119,53.193 C116.3429,53.218 115.4789,53.227 114.8429,53.231 C111.9319,52.128 109.0799,51.012 106.2869,49.887 L106.2859,49.887 C92.0979,44.173 79.5469,38.28 69.5999,33.267 M267.6799,67.122 C268.3329,66.79 268.9789,66.443 269.6289,66.095 C270.1619,65.808 270.6969,65.521 271.2269,65.226 C272.0189,64.78 272.8019,64.315 273.5849,63.847 C274.0779,63.55 274.5739,63.261 275.0629,62.955 C275.9149,62.423 276.7509,61.866 277.5869,61.304 C277.9909,61.032 278.4019,60.773 278.8039,60.492 C280.0349,59.641 281.2529,58.758 282.4479,57.836 C243.1489,33.275 184.2029,0.734 184.2029,0.734 C184.2029,0.734 184.1649,0.757 184.1079,0.793 C184.0889,0.804 184.0889,0.804 184.0669,0.817 C183.9909,0.863 183.8809,0.929 183.7409,1.011 C183.7139,1.027 183.6939,1.039 183.6659,1.055 C183.5139,1.144 183.3319,1.249 183.1179,1.373 C183.0789,1.394 183.0439,1.416 183.0029,1.439 C182.7739,1.568 182.5199,1.711 182.2269,1.874 C182.1909,1.894 182.1549,1.915 182.1189,1.934 C181.8189,2.1 181.4929,2.279 181.1309,2.474 C181.1039,2.489 181.0809,2.502 181.0539,2.517 C180.6889,2.712 180.2849,2.927 179.8589,3.149 C179.7819,3.189 179.7109,3.228 179.6309,3.269 C179.2059,3.49 178.7479,3.726 178.2639,3.971 C178.1729,4.019 178.0789,4.064 177.9849,4.113 C177.4899,4.362 176.9689,4.622 176.4169,4.893 C176.3139,4.942 176.2109,4.993 176.1059,5.043 C175.5269,5.326 174.9249,5.615 174.2859,5.917 C174.2249,5.945 174.1609,5.975 174.0999,6.004 C173.4699,6.3 172.8109,6.605 172.1239,6.919 C172.0429,6.956 171.9659,6.991 171.8819,7.028 C171.1839,7.345 170.4499,7.671 169.6949,8.003 C169.5569,8.064 169.4209,8.124 169.2799,8.185 C168.5339,8.509 167.7579,8.842 166.9609,9.176 C166.7939,9.247 166.6269,9.316 166.4599,9.386 C165.6439,9.726 164.8089,10.068 163.9429,10.417 C163.7909,10.477 163.6339,10.538 163.4819,10.6 C162.5669,10.963 161.6329,11.332 160.6639,11.702 C160.6009,11.726 160.5369,11.749 160.4729,11.773 C159.5279,12.134 158.5499,12.498 157.5529,12.862 C157.4069,12.915 157.2639,12.968 157.1159,13.023 C156.1179,13.385 155.0909,13.747 154.0419,14.11 C153.8299,14.184 153.6199,14.257 153.4049,14.331 C152.3619,14.688 151.2969,15.045 150.2079,15.401 C149.9829,15.476 149.7569,15.548 149.5309,15.621 C148.4129,15.982 147.2749,16.342 146.1089,16.701 C145.9279,16.756 145.7439,16.81 145.5609,16.866 C144.3599,17.231 143.1419,17.594 141.8899,17.953 C141.8299,17.97 141.7729,17.986 141.7139,18.003 C140.4359,18.368 139.1279,18.728 137.7999,19.083 C137.5909,19.14 137.3819,19.197 137.1689,19.254 C135.8909,19.592 134.5889,19.924 133.2649,20.252 C132.9969,20.318 132.7259,20.385 132.4529,20.452 C131.1309,20.775 129.7839,21.091 128.4179,21.402 C128.1549,21.46 127.8889,21.519 127.6269,21.578 C126.2139,21.893 124.7819,22.204 123.3209,22.502 C123.1419,22.538 122.9599,22.574 122.7819,22.609 C121.3219,22.905 119.8429,23.191 118.3389,23.468 C118.2089,23.491 118.0819,23.518 117.9519,23.542 C116.4149,23.821 114.8519,24.087 113.2719,24.345 C113.0009,24.39 112.7349,24.434 112.4639,24.478 C110.9239,24.724 109.3609,24.958 107.7809,25.181 C107.4689,25.224 107.1599,25.268 106.8479,25.311 C105.2549,25.529 103.6439,25.737 102.0079,25.93 C101.7289,25.963 101.4429,25.995 101.1609,26.027 C99.4569,26.222 97.7379,26.407 95.9939,26.572 C95.8579,26.585 95.7219,26.595 95.5889,26.608 C93.8599,26.769 92.1089,26.914 90.3379,27.043 C90.1429,27.057 89.9529,27.072 89.7589,27.087 C87.9829,27.211 86.1829,27.317 84.3649,27.407 C84.0499,27.423 83.7369,27.439 83.4219,27.455 C81.6379,27.537 79.8319,27.602 78.0089,27.649 C77.6739,27.659 77.3359,27.666 76.9959,27.673 C75.1469,27.714 73.2789,27.739 71.3879,27.74 C71.1039,27.74 70.8149,27.738 70.5279,27.738 C68.7629,27.734 66.9869,27.716 65.1909,27.676 C65.0519,27.672 64.9149,27.672 64.7769,27.669 C62.9189,27.625 61.0399,27.556 59.1499,27.472 C58.7869,27.456 58.4249,27.44 58.0599,27.423 C56.2079,27.333 54.3379,27.224 52.4499,27.093 C52.1069,27.07 51.7609,27.044 51.4169,27.018 C49.4399,26.874 47.4509,26.714 45.4409,26.523 C46.1069,26.911 46.8279,27.324 47.5679,27.748 C47.7809,27.87 48.0009,27.994 48.2179,28.119 C48.8489,28.476 49.5049,28.846 50.1839,29.225 C50.3539,29.321 50.5179,29.414 50.6929,29.512 C51.5109,29.966 52.3639,30.438 53.2459,30.921 C53.5169,31.069 53.7979,31.22 54.0739,31.371 C54.7659,31.749 55.4799,32.134 56.2099,32.525 C56.4999,32.682 56.7859,32.836 57.0799,32.994 C58.0399,33.506 59.0289,34.029 60.0479,34.564 C60.3349,34.715 60.6369,34.871 60.9309,35.025 C61.7259,35.439 62.5389,35.861 63.3669,36.286 C63.7439,36.48 64.1189,36.673 64.5029,36.869 C65.5939,37.427 66.7069,37.992 67.8529,38.565 C68.1099,38.694 68.3759,38.825 68.6339,38.954 C69.5899,39.429 70.5629,39.912 71.5519,40.397 C71.9779,40.606 72.4059,40.814 72.8389,41.026 C73.8649,41.524 74.9079,42.028 75.9699,42.535 C76.2349,42.662 76.4919,42.788 76.7599,42.915 C78.0289,43.52 79.3269,44.129 80.6419,44.74 C81.0909,44.949 81.5439,45.158 81.9969,45.368 C83.0319,45.846 84.0769,46.323 85.1379,46.802 C85.5359,46.986 85.9319,47.166 86.3359,47.348 C87.7099,47.967 89.1029,48.585 90.5189,49.206 C90.9709,49.403 91.4309,49.605 91.8879,49.801 C92.9739,50.276 94.0749,50.749 95.1859,51.222 C95.6699,51.428 96.1479,51.634 96.6339,51.839 C96.6459,51.844 96.6539,51.848 96.6639,51.853 C96.4779,51.889 96.2939,51.928 96.1059,51.963 C95.3659,52.112 94.6239,52.257 93.8829,52.402 C93.3429,52.508 92.8059,52.613 92.2659,52.716 C91.5139,52.863 90.7599,53.01 90.0079,53.152 C89.4849,53.252 88.9589,53.351 88.4329,53.453 C87.6699,53.596 86.9079,53.74 86.1469,53.882 C85.6609,53.972 85.1749,54.061 84.6899,54.15 C82.9049,54.481 81.1219,54.802 79.3449,55.118 C79.1559,55.15 78.9649,55.187 78.7749,55.219 C78.0209,55.353 77.2709,55.48 76.5199,55.61 C75.9889,55.703 75.4559,55.796 74.9249,55.885 C74.2089,56.007 73.4929,56.127 72.7779,56.247 C72.2269,56.34 71.6759,56.431 71.1259,56.521 C70.4159,56.638 69.7069,56.752 68.9989,56.867 C68.4469,56.955 67.8929,57.044 67.3429,57.131 C66.6449,57.24 65.9479,57.351 65.2519,57.457 C64.6959,57.544 64.1419,57.627 63.5889,57.711 C62.8979,57.815 62.2079,57.919 61.5219,58.02 C60.9759,58.101 60.4329,58.177 59.8889,58.255 C59.2039,58.355 58.5169,58.454 57.8369,58.549 C57.3199,58.62 56.8099,58.689 56.2949,58.758 C55.0119,58.934 53.7369,59.102 52.4709,59.262 C51.9349,59.331 51.3949,59.401 50.8619,59.467 C50.2249,59.545 49.5939,59.62 48.9639,59.693 C48.4109,59.76 47.8559,59.825 47.3059,59.888 C46.6919,59.959 46.0829,60.026 45.4719,60.09 C44.9199,60.151 44.3679,60.211 43.8189,60.268 C43.2149,60.33 42.6139,60.392 42.0179,60.449 C41.4719,60.503 40.9309,60.555 40.3929,60.605 C39.8069,60.66 39.2229,60.715 38.6439,60.764 C38.0939,60.812 37.5519,60.857 37.0079,60.9 C36.4469,60.946 35.8859,60.993 35.3329,61.034 C34.7649,61.078 34.2039,61.114 33.6419,61.151 C33.0459,61.193 32.4479,61.234 31.8599,61.269 C30.9389,61.326 30.0269,61.377 29.1289,61.421 C28.6459,61.442 28.1729,61.46 27.6969,61.479 C27.1519,61.501 26.6039,61.525 26.0679,61.542 C25.5759,61.557 25.0959,61.569 24.6099,61.579 C24.1029,61.592 23.5949,61.603 23.0949,61.611 C22.6169,61.617 22.1449,61.621 21.6739,61.624 C21.2229,61.626 20.7769,61.625 20.3309,61.624 C19.6899,61.621 19.0589,61.613 18.4339,61.602 C18.0379,61.595 17.6419,61.586 17.2509,61.575 C16.6509,61.559 16.0629,61.536 15.4779,61.509 C15.0849,61.491 14.6929,61.475 14.3069,61.454 C13.7519,61.423 13.2119,61.384 12.6749,61.345 C12.2829,61.317 11.8899,61.29 11.5059,61.255 C10.9959,61.211 10.5039,61.159 10.0089,61.105 C9.6269,61.065 9.2399,61.028 8.8679,60.98 C8.3949,60.922 7.9379,60.853 7.4809,60.786 C7.1169,60.734 6.7479,60.685 6.3939,60.626 C5.9419,60.55 5.5099,60.464 5.0749,60.38 C4.7469,60.316 4.4059,60.259 4.0899,60.19 C3.6289,60.09 3.1949,59.978 2.7559,59.868 C2.4919,59.801 2.2129,59.741 1.9559,59.67 C1.2759,59.481 0.6219,59.282 -0.0001,59.064 C-0.0001,59.064 0.0469,59.09 0.0969,59.119 C0.1139,59.13 0.1399,59.143 0.1609,59.155 C0.2149,59.186 0.2999,59.233 0.3849,59.281 C0.4339,59.307 0.4809,59.334 0.5389,59.365 C0.6829,59.446 0.8569,59.543 1.0599,59.652 C1.1139,59.683 1.1829,59.719 1.2399,59.75 C1.4149,59.847 1.6059,59.951 1.8169,60.065 C1.9029,60.112 1.9969,60.161 2.0889,60.212 C2.3029,60.327 2.5409,60.456 2.7879,60.587 C2.8939,60.644 2.9929,60.697 3.1079,60.758 C3.4429,60.937 3.8079,61.13 4.1969,61.335 C4.3359,61.408 4.4889,61.488 4.6319,61.564 C4.9289,61.718 5.2359,61.878 5.5579,62.047 C5.7299,62.136 5.9029,62.227 6.0819,62.318 C6.4399,62.505 6.8169,62.697 7.2029,62.894 C7.3689,62.98 7.5259,63.061 7.6979,63.149 C8.2029,63.407 8.7379,63.678 9.2899,63.957 C9.5189,64.07 9.7569,64.19 9.9949,64.308 C10.3819,64.503 10.7809,64.701 11.1899,64.905 C11.4539,65.037 11.7189,65.168 11.9909,65.303 C12.5589,65.583 13.1449,65.87 13.7489,66.165 C14.0129,66.294 14.2859,66.425 14.5569,66.556 C15.0889,66.815 15.6319,67.079 16.1919,67.346 C16.5099,67.498 16.8329,67.653 17.1589,67.808 C17.6539,68.042 18.1599,68.284 18.6739,68.525 C18.9979,68.678 19.3169,68.829 19.6479,68.983 C20.4319,69.351 21.2349,69.725 22.0609,70.107 C22.3799,70.253 22.7099,70.404 23.0359,70.553 C23.6149,70.819 24.1989,71.085 24.7979,71.357 C25.1989,71.539 25.6029,71.722 26.0139,71.905 C26.6099,72.174 27.2199,72.446 27.8359,72.721 C28.2089,72.888 28.5749,73.051 28.9559,73.218 C29.8729,73.625 30.8159,74.037 31.7699,74.451 C32.1959,74.637 32.6329,74.824 33.0679,75.01 C33.6969,75.283 34.3319,75.555 34.9789,75.829 C35.4509,76.03 35.9229,76.231 36.4029,76.434 C37.1509,76.749 37.9129,77.066 38.6779,77.387 C39.2349,77.617 39.7899,77.849 40.3549,78.081 C41.2159,78.435 42.0859,78.79 42.9679,79.148 C43.4749,79.353 43.9899,79.561 44.5039,79.766 C45.2089,80.048 45.9219,80.332 46.6399,80.616 C47.1649,80.824 47.6859,81.031 48.2159,81.239 C49.3049,81.665 50.4049,82.092 51.5229,82.521 C52.0129,82.709 52.5139,82.898 53.0109,83.087 C53.8469,83.404 54.6879,83.724 55.5409,84.041 C56.1089,84.254 56.6819,84.468 57.2599,84.68 C58.0569,84.974 58.8649,85.27 59.6779,85.566 C60.2229,85.764 60.7669,85.963 61.3189,86.162 C62.5669,86.61 63.8309,87.058 65.1079,87.506 C65.6519,87.697 66.2069,87.887 66.7559,88.078 C67.6189,88.376 68.4879,88.674 69.3639,88.971 C69.9779,89.181 70.5939,89.39 71.2139,89.598 C72.1439,89.911 73.0809,90.219 74.0219,90.528 C74.5019,90.686 74.9729,90.846 75.4559,91.002 C75.2909,91.07 75.1219,91.139 74.9559,91.209 C74.5949,91.36 74.2379,91.516 73.8799,91.67 C73.2619,91.932 72.6449,92.195 72.0339,92.461 C71.6159,92.643 71.2039,92.831 70.7909,93.014 C70.2409,93.257 69.6899,93.502 69.1439,93.751 C68.7129,93.945 68.2859,94.145 67.8589,94.342 C67.3409,94.583 66.8209,94.821 66.3069,95.065 C65.8679,95.273 65.4329,95.483 64.9969,95.692 C64.4989,95.934 63.9989,96.173 63.5039,96.417 C63.0719,96.628 62.6439,96.846 62.2139,97.061 C61.7239,97.307 61.2349,97.553 60.7489,97.802 C60.3229,98.021 59.8999,98.242 59.4779,98.463 C58.9989,98.714 58.5189,98.967 58.0439,99.221 C57.6259,99.445 57.2129,99.67 56.7989,99.897 C56.3299,100.154 55.8599,100.414 55.3939,100.674 C54.9849,100.902 54.5759,101.133 54.1709,101.367 C53.7119,101.629 53.2559,101.894 52.8029,102.159 C52.4019,102.394 52.0029,102.631 51.6069,102.867 C51.1559,103.137 50.7089,103.409 50.2659,103.683 C49.8779,103.923 49.4919,104.161 49.1099,104.4 C48.6659,104.678 48.2249,104.961 47.7879,105.245 C47.4139,105.486 47.0429,105.726 46.6769,105.968 C46.2369,106.259 45.8049,106.553 45.3719,106.847 C45.0169,107.086 44.6639,107.326 44.3139,107.568 C43.8759,107.873 43.4469,108.182 43.0169,108.49 C42.6839,108.728 42.3479,108.965 42.0219,109.207 C41.5789,109.531 41.1489,109.859 40.7159,110.187 C40.4119,110.416 40.1049,110.646 39.8049,110.878 C39.3299,111.246 38.8679,111.622 38.4049,111.993 C38.1609,112.189 37.9119,112.383 37.6709,112.582 C36.9719,113.157 36.2869,113.735 35.6179,114.323 C35.6179,114.323 54.4859,119.404 78.9829,127.924 C66.1349,136.06 54.2479,146.287 44.8279,159.157 C44.8279,159.157 152.2779,188.634 178.6759,231 C190.3479,215.033 243.7589,160.386 274.4629,149.332 C266.9619,144.492 251.4489,135.268 235.4049,125.859 C246.6989,118.66 259.4979,111.738 273.8519,105.728 C272.3859,104.167 269.7189,102.105 266.2349,99.738 C266.9869,99.494 267.7389,99.245 268.4889,98.993 C269.7039,98.583 270.9179,98.151 272.1299,97.717 C273.1089,97.367 274.0879,97.021 275.0629,96.653 C276.2999,96.189 277.5329,95.698 278.7669,95.208 C279.7099,94.833 280.6549,94.467 281.5959,94.075 C282.8819,93.543 284.1609,92.975 285.4419,92.414 C286.3189,92.028 287.2009,91.656 288.0749,91.255 C289.4899,90.608 290.8999,89.921 292.3069,89.239 C293.0389,88.883 293.7739,88.548 294.5029,88.182 C296.6349,87.114 298.7589,86.008 300.8699,84.852 C292.8689,80.504 280.8279,74.086 267.6799,67.122" id="Fill-3" fill="#1D1C1B" mask="url(#mask-2)"></path>
            </g>
        </g>
    </g>
</svg>